<?xml version="1.0" encoding="utf-8"?>
<!-- Generator: Adobe Illustrator 16.0.0, SVG Export Plug-In . SVG Version: 6.00 Build 0)  -->
<!DOCTYPE svg PUBLIC "-//W3C//DTD SVG 1.1//EN" "http://www.w3.org/Graphics/SVG/1.1/DTD/svg11.dtd">
<svg version="1.1" id="Layer_1" xmlns="http://www.w3.org/2000/svg" xmlns:xlink="http://www.w3.org/1999/xlink" x="0px" y="0px"
	 width="75px" height="58px" viewBox="0 0 75 58" enable-background="new 0 0 75 58" xml:space="preserve">
<g>
	<g>
		<path fill="#BDBCBC" d="M59.155,35.454l6.707-1.648l-7.77,0.449l7.418-3.992c0,0-5.436,1.77-8.393,2.617l6.217-5.834
			c0,0-4.475,2.957-7.193,4.645c1.359-2.467,3.828-6.838,3.787-6.781c0.008-0.016-3.361,3.469-5.199,5.385
			c0.688-2.777,1.721-6.807,1.703-6.758c0-0.01-1.748,3.842-2.924,6.459l-0.26-7.502l-1.49,7.838l-2.421-7.162l0.912,6.848
			l-5.029-5.793l3.571,6.637l-6.628-3.709c2.096,2.004,5.35,4.803,7.956,5.826C53.132,34.163,55.282,35.345,59.155,35.454z"/>
		<path fill="#929291" d="M72.354,23.54l-3.713,5.42c-7.238-4.35-16.085-8.295-24.065-5.293c-2.589,1.049-2.908,1.186-5.268,2.826
			c-0.271-0.18-1.609-0.158-1.787-0.287c5.641-5.547,12.219-10.06,22.038-8.275C64.618,18.827,69.024,21.046,72.354,23.54z"/>
		<path fill="#929291" d="M46.354,31.681c0,0,9.968,5.719,18.151,4.115c-2.85,2.954-5.146,4.321-14.004,4.298
			c-18.776-0.023-25.534-17.065-41.5-17.028c-2.453,0.211-4.666,1.637-5.507,4.113c1.12-7.463,11.981-10.011,19.344-8.361
			C33.376,21.765,36.31,27.528,46.354,31.681z"/>
		<path fill="#929291" d="M7.099,30.017c2.833,5.283,8.28,6.09,14.06,5.67c4.476-0.465,6.337-2.027,7.528-2.781
			c0.534-0.008,1.343,0.293,1.989,0.617c-5.59,4.785-14.749,7.36-22.128,3.811c-6.241-3.484-6.398-10.359-1.922-12.025
			C5.754,26.114,6.179,28.284,7.099,30.017z"/>
	</g>
	<g>
		<path fill="#1D1C1A" d="M10.403,10.51c-0.976,0.243-1.882,0.365-2.718,0.365c-1.384,0-2.482-0.34-3.296-1.019
			c-0.812-0.68-1.217-1.598-1.217-2.753c0-1.129,0.403-2.037,1.211-2.722c0.81-0.684,1.877-1.025,3.207-1.025
			c0.984,0,1.895,0.096,2.73,0.287l0.185,1.412H10.06l-0.019-0.082c-0.093-0.422-0.349-0.75-0.766-0.985
			C8.86,3.756,8.318,3.64,7.654,3.64c-0.915,0-1.668,0.325-2.258,0.972C4.806,5.261,4.509,6.09,4.509,7.097
			c0,1.045,0.303,1.889,0.908,2.531c0.604,0.643,1.397,0.964,2.375,0.964c1.32,0,2.088-0.46,2.303-1.381l0.019-0.078h0.457
			L10.403,10.51z"/>
		<path fill="#1D1C1A" d="M18.282,8.425L17.728,9.48c-0.163,0.299-0.244,0.487-0.244,0.567c0,0.186,0.204,0.292,0.612,0.319
			l0.096,0.01v0.283h-2.265v-0.283h0.096c0.236,0,0.434-0.065,0.588-0.194c0.155-0.13,0.327-0.374,0.517-0.732l3.259-6.094h0.372
			l3.373,6.094c0.21,0.377,0.376,0.626,0.499,0.746s0.271,0.181,0.445,0.181h0.077v0.283h-2.722v-0.283h0.101
			c0.242,0,0.404-0.02,0.488-0.055c0.083-0.037,0.125-0.108,0.125-0.215c0-0.089-0.095-0.308-0.286-0.659l-0.558-1.023H18.282z
			 M18.454,8.073h3.618l-1.848-3.346L18.454,8.073z"/>
		<path fill="#1D1C1A" d="M33.659,10.66h-3.411v-0.283h0.095c0.416,0,0.688-0.059,0.818-0.177c0.127-0.116,0.191-0.366,0.191-0.746
			V4.772c0-0.38-0.064-0.627-0.191-0.746c-0.13-0.117-0.402-0.177-0.818-0.177h-0.095V3.567h3.411V3.85h-0.091
			c-0.415,0-0.688,0.06-0.818,0.177c-0.131,0.119-0.196,0.366-0.196,0.746v4.682c0,0.377,0.065,0.625,0.196,0.745
			c0.13,0.119,0.403,0.178,0.818,0.178h0.091V10.66z"/>
		<path fill="#1D1C1A" d="M46.488,10.51c-0.976,0.243-1.883,0.365-2.717,0.365c-1.386,0-2.483-0.34-3.297-1.019
			c-0.812-0.68-1.217-1.598-1.217-2.753c0-1.129,0.404-2.037,1.212-2.722c0.809-0.684,1.877-1.025,3.206-1.025
			c0.984,0,1.896,0.096,2.73,0.287l0.184,1.412h-0.445l-0.019-0.082c-0.093-0.422-0.348-0.75-0.765-0.985
			c-0.416-0.232-0.958-0.349-1.622-0.349c-0.915,0-1.668,0.325-2.259,0.972c-0.591,0.649-0.886,1.479-0.886,2.485
			c0,1.045,0.303,1.889,0.907,2.531c0.605,0.643,1.396,0.964,2.376,0.964c1.319,0,2.087-0.46,2.303-1.381l0.017-0.078h0.458
			L46.488,10.51z"/>
		<path fill="#1D1C1A" d="M55.374,7.331l-1.961-2.57C52.95,4.153,52.513,3.85,52.1,3.85h-0.088V3.567h2.944V3.85h-0.125
			c-0.283,0-0.428,0.074-0.428,0.225c0,0.144,0.119,0.373,0.357,0.687l1.611,2.158l1.541-2.176c0.221-0.313,0.332-0.519,0.332-0.618
			c0-0.163-0.162-0.252-0.488-0.271L57.62,3.85V3.567h2.229V3.85h-0.131c-0.297,0-0.52,0.051-0.666,0.153s-0.365,0.355-0.654,0.762
			l-1.824,2.566v2.122c0,0.384,0.076,0.634,0.227,0.75c0.15,0.115,0.471,0.174,0.963,0.174h0.096v0.283h-3.768v-0.283h0.094
			c0.492,0,0.813-0.059,0.963-0.174c0.152-0.116,0.227-0.366,0.227-0.75V7.331z"/>
		<path fill="#1D1C1A" d="M68.151,3.918h-0.939c-0.705,0-1.191,0.073-1.461,0.221c-0.27,0.146-0.447,0.432-0.529,0.858l-0.02,0.092
			h-0.486l0.227-1.65c1.025,0.085,2.094,0.129,3.209,0.129h1.24c1.115,0,2.184-0.044,3.209-0.129l0.227,1.65h-0.482l-0.023-0.092
			c-0.082-0.427-0.258-0.712-0.527-0.858c-0.27-0.147-0.758-0.221-1.463-0.221h-0.939v5.536c0,0.383,0.076,0.632,0.229,0.748
			s0.475,0.175,0.967,0.175h0.09v0.283h-3.811v-0.283h0.09c0.496,0,0.82-0.059,0.969-0.175c0.15-0.116,0.227-0.365,0.227-0.748
			V3.918z"/>
	</g>
	<g>
		<path fill="#1D1C1A" d="M10.588,54.277c-0.977,0.244-1.883,0.367-2.719,0.367c-1.385,0-2.483-0.34-3.295-1.02
			s-1.218-1.598-1.218-2.752c0-1.131,0.403-2.037,1.212-2.721c0.808-0.684,1.877-1.027,3.207-1.027c0.984,0,1.894,0.096,2.729,0.289
			l0.185,1.412h-0.445l-0.018-0.082c-0.094-0.424-0.349-0.752-0.766-0.986s-0.957-0.35-1.622-0.35c-0.914,0-1.669,0.324-2.259,0.973
			s-0.887,1.477-0.887,2.486c0,1.045,0.304,1.889,0.908,2.529c0.605,0.643,1.396,0.963,2.376,0.963c1.319,0,2.087-0.461,2.302-1.381
			l0.019-0.076h0.457L10.588,54.277z"/>
		<path fill="#1D1C1A" d="M18.476,54.645c-1.284,0-2.335-0.354-3.152-1.055c-0.818-0.705-1.228-1.607-1.228-2.709
			c0-1.1,0.409-2,1.228-2.701c0.817-0.703,1.868-1.055,3.152-1.055c1.159,0,2.108,0.268,2.845,0.803
			c0.473,0.342,0.845,0.779,1.121,1.309c0.275,0.529,0.413,1.08,0.413,1.645c0,1.102-0.409,2.004-1.228,2.709
			C20.81,54.291,19.759,54.645,18.476,54.645z M18.476,54.359c0.871,0,1.589-0.324,2.15-0.975c0.562-0.652,0.844-1.486,0.844-2.5
			c0-1.012-0.282-1.844-0.844-2.498c-0.562-0.652-1.279-0.979-2.15-0.979c-0.872,0-1.59,0.326-2.151,0.979
			c-0.562,0.654-0.845,1.486-0.845,2.498c0,1.014,0.28,1.848,0.842,2.5C16.881,54.035,17.6,54.359,18.476,54.359z"/>
		<path fill="#1D1C1A" d="M27.89,48.932v4.291c0,0.381,0.063,0.629,0.189,0.746c0.127,0.117,0.396,0.176,0.809,0.176h0.106v0.285
			h-2.857v-0.285h0.071c0.407,0,0.674-0.059,0.8-0.176c0.123-0.117,0.186-0.365,0.186-0.746v-4.875l-0.179-0.193
			c-0.346-0.357-0.664-0.535-0.957-0.535H25.95v-0.283h1.767l5.449,5.201v-3.994c0-0.381-0.064-0.629-0.193-0.746
			c-0.129-0.119-0.4-0.178-0.817-0.178h-0.094v-0.283h2.852v0.283h-0.107c-0.408,0-0.677,0.059-0.805,0.178
			c-0.13,0.117-0.194,0.365-0.194,0.746l-0.002,6.102L27.89,48.932z"/>
		<path fill="#1D1C1A" d="M41.249,54.43h-3.41v-0.285h0.095c0.415,0,0.688-0.059,0.816-0.176c0.129-0.117,0.193-0.365,0.193-0.746
			v-4.68c0-0.381-0.064-0.629-0.193-0.746c-0.128-0.119-0.401-0.178-0.816-0.178h-0.095v-0.283h3.41v0.283H41.16
			c-0.417,0-0.689,0.059-0.82,0.178c-0.131,0.117-0.196,0.365-0.196,0.746v4.68c0,0.377,0.065,0.627,0.196,0.744
			c0.131,0.119,0.403,0.178,0.82,0.178h0.089V54.43z"/>
		<path fill="#1D1C1A" d="M51.561,54.277c-0.978,0.244-1.883,0.367-2.719,0.367c-1.385,0-2.483-0.34-3.295-1.02
			s-1.218-1.598-1.218-2.752c0-1.131,0.404-2.037,1.211-2.721c0.809-0.684,1.878-1.027,3.207-1.027c0.984,0,1.895,0.096,2.731,0.289
			l0.184,1.412h-0.446l-0.018-0.082c-0.094-0.424-0.35-0.752-0.766-0.986s-0.957-0.35-1.622-0.35c-0.915,0-1.668,0.324-2.259,0.973
			s-0.885,1.477-0.885,2.486c0,1.045,0.302,1.889,0.906,2.529c0.605,0.643,1.397,0.963,2.376,0.963c1.319,0,2.087-0.461,2.304-1.381
			l0.016-0.076h0.458L51.561,54.277z"/>
		<path fill="#1D1C1A" d="M57.331,50.846v2.41c0,0.307,0.166,0.518,0.5,0.639c0.332,0.123,0.918,0.182,1.756,0.182h0.248
			c0.365,0,0.637-0.07,0.813-0.213s0.301-0.396,0.375-0.76l0.018-0.086h0.457l-0.184,1.539c-0.752-0.039-1.309-0.061-1.676-0.061
			c-0.389,0-0.848-0.01-1.377-0.035c-0.518-0.02-0.828-0.031-0.936-0.031h-2.299v-0.285h0.107c0.395,0,0.662-0.061,0.797-0.184
			c0.133-0.125,0.201-0.369,0.201-0.738v-4.666c0-0.395-0.063-0.646-0.188-0.764s-0.396-0.174-0.811-0.174h-0.107v-0.283h6.055
			l0.184,1.313h-0.457l-0.018-0.098c-0.074-0.398-0.223-0.643-0.445-0.732c-0.223-0.088-0.805-0.131-1.744-0.131h-1.27v2.875h1.355
			c0.635,0,1.039-0.043,1.215-0.127s0.266-0.277,0.266-0.576v-0.078h0.457v1.848h-0.457v-0.07c0-0.268-0.074-0.459-0.221-0.576
			c-0.119-0.092-0.539-0.137-1.26-0.137H57.331z"/>
		<path fill="#1D1C1A" d="M67.722,47.688H66.78c-0.703,0-1.191,0.072-1.461,0.219s-0.445,0.432-0.527,0.861l-0.018,0.09h-0.488
			l0.225-1.65c1.027,0.084,2.098,0.129,3.211,0.129h1.24c1.113,0,2.184-0.045,3.209-0.129l0.227,1.65h-0.482l-0.023-0.09
			c-0.084-0.43-0.26-0.715-0.529-0.861s-0.756-0.219-1.461-0.219h-0.939v5.535c0,0.383,0.076,0.631,0.229,0.748
			s0.475,0.174,0.967,0.174h0.088v0.285h-3.809v-0.285h0.09c0.496,0,0.82-0.057,0.969-0.174c0.15-0.117,0.227-0.365,0.227-0.748
			V47.688z"/>
	</g>
</g>
</svg>
