<?xml version="1.0" encoding="utf-8"?>
<svg viewBox="0 0 174 108" xmlns="http://www.w3.org/2000/svg" xmlns:bx="https://boxy-svg.com">
  <defs>
    <filter id="grayscale-filter-0" color-interpolation-filters="sRGB" x="-500%" y="-500%" width="1000%" height="1000%" bx:preset="grayscale 1 1">
      <feColorMatrix type="matrix" values="0.213 0.715 0.072 0 0 0.213 0.715 0.072 0 0 0.213 0.715 0.072 0 0 0 0 0 1 0"/>
    </filter>
  </defs>
  <g style="filter: url(#grayscale-filter-0);">
    <g>
      <g>
        <path fill="#1D1D1B" d="M23.597,33.567v-4.203c0-0.224-0.016-0.411-0.049-0.56c-0.034-0.149-0.108-0.273-0.226-0.372 c-0.118-0.098-0.29-0.17-0.516-0.218c-0.226-0.046-0.537-0.079-0.932-0.098l0.028-0.504c0.15,0,0.332,0.002,0.543,0.007 c0.212,0.005,0.436,0.007,0.67,0.007c0.245,0,0.495,0.002,0.75,0.007c0.253,0.005,0.494,0.007,0.72,0.007 c0.178,0,0.376-0.002,0.593-0.007c0.217-0.004,0.428-0.007,0.636-0.007c0.217,0,0.419-0.002,0.607-0.007 c0.188-0.005,0.349-0.007,0.48-0.007l0.029,0.477c-0.367,0.028-0.662,0.073-0.883,0.133c-0.222,0.061-0.393,0.154-0.516,0.28 c-0.122,0.126-0.205,0.302-0.247,0.525c-0.042,0.224-0.063,0.509-0.063,0.855v9.429c0,0.224,0.019,0.411,0.056,0.56 c0.038,0.15,0.116,0.273,0.233,0.372c0.117,0.098,0.294,0.17,0.529,0.217c0.236,0.047,0.552,0.08,0.947,0.098l-0.028,0.504 c-0.151,0-0.334-0.002-0.551-0.007c-0.217-0.004-0.447-0.006-0.692-0.006c-0.244,0-0.494-0.002-0.748-0.007 c-0.254-0.005-0.495-0.007-0.72-0.007c-0.188,0-0.389,0.002-0.6,0.007c-0.212,0.005-0.422,0.007-0.629,0.007 s-0.402,0.002-0.586,0.006c-0.184,0.005-0.341,0.007-0.473,0.007l-0.042-0.477c0.367-0.028,0.659-0.072,0.875-0.133 s0.386-0.155,0.509-0.281c0.122-0.125,0.202-0.298,0.24-0.518c0.038-0.22,0.057-0.507,0.057-0.861v-4.399h-7.556v4.918 c0,0.224,0.017,0.411,0.05,0.56c0.033,0.15,0.108,0.273,0.226,0.372c0.118,0.099,0.29,0.17,0.515,0.217 c0.227,0.047,0.537,0.08,0.932,0.098l-0.028,0.504c-0.151,0-0.333-0.002-0.544-0.007c-0.212-0.004-0.438-0.009-0.678-0.014 c-0.24-0.005-0.487-0.01-0.741-0.014s-0.494-0.007-0.72-0.007c-0.179,0-0.377,0.002-0.594,0.007 c-0.216,0.004-0.433,0.007-0.65,0.007c-0.207,0-0.404,0.002-0.593,0.007s-0.349,0.007-0.48,0.007l-0.028-0.477 c0.367-0.028,0.661-0.072,0.882-0.133c0.221-0.061,0.394-0.154,0.516-0.28c0.123-0.126,0.205-0.299,0.247-0.519 c0.043-0.219,0.064-0.506,0.064-0.862v-9.415c0-0.224-0.019-0.411-0.056-0.56c-0.038-0.149-0.116-0.273-0.233-0.372 c-0.118-0.098-0.294-0.17-0.529-0.218c-0.235-0.046-0.552-0.079-0.947-0.098l0.028-0.504h0.622c0.235,0,0.473,0.002,0.713,0.007 c0.24,0.005,0.473,0.007,0.699,0.007h1.242c0.216,0,0.431-0.002,0.643-0.007c0.211-0.005,0.411-0.007,0.6-0.007h0.48l0.042,0.477 c-0.367,0.028-0.659,0.073-0.875,0.133c-0.217,0.061-0.387,0.154-0.509,0.28s-0.202,0.302-0.24,0.525 c-0.038,0.224-0.057,0.509-0.057,0.855v3.685h7.556V33.567z"/>
        <path fill="#1D1D1B" d="M31.844,36.454c0,0.672,0.113,1.249,0.339,1.73s0.525,0.874,0.897,1.177 c0.372,0.303,0.793,0.527,1.264,0.672c0.47,0.146,0.956,0.217,1.455,0.217c0.509,0,0.993-0.077,1.455-0.231 c0.461-0.154,0.871-0.401,1.228-0.743c0.358-0.34,0.643-0.779,0.854-1.316c0.212-0.538,0.318-1.184,0.318-1.94v-5.885 c0-0.411-0.031-0.742-0.092-0.995c-0.062-0.252-0.174-0.448-0.339-0.588c-0.165-0.141-0.394-0.238-0.685-0.294 c-0.292-0.057-0.668-0.099-1.13-0.126l0.028-0.504c0.33,0,0.728,0.005,1.193,0.014c0.467,0.009,0.954,0.014,1.462,0.014 c0.414,0,0.847-0.007,1.299-0.021c0.452-0.014,0.829-0.021,1.13-0.021l0.014,0.477c-0.415,0.037-0.751,0.082-1.009,0.133 c-0.259,0.052-0.466,0.152-0.622,0.301c-0.155,0.15-0.261,0.369-0.317,0.659c-0.057,0.29-0.085,0.687-0.085,1.191v5.926 c0,0.916-0.155,1.689-0.466,2.326c-0.31,0.636-0.718,1.156-1.221,1.563c-0.503,0.406-1.073,0.7-1.708,0.882 c-0.636,0.183-1.284,0.273-1.942,0.273c-0.649,0-1.271-0.089-1.864-0.266c-0.593-0.178-1.118-0.448-1.575-0.813 c-0.457-0.364-0.822-0.822-1.095-1.373c-0.272-0.551-0.41-1.2-0.41-1.948v-7.481c0-0.224-0.021-0.416-0.063-0.575 c-0.043-0.158-0.132-0.292-0.269-0.399c-0.137-0.106-0.332-0.188-0.586-0.245c-0.254-0.056-0.593-0.093-1.017-0.112l0.028-0.504 c0.169,0,0.37,0.002,0.6,0.007c0.23,0.005,0.473,0.007,0.728,0.007c0.264,0,0.53,0.002,0.797,0.007 c0.269,0.004,0.521,0.007,0.756,0.007c0.188,0,0.398-0.002,0.628-0.007c0.23-0.005,0.464-0.007,0.699-0.007 s0.459-0.002,0.671-0.007c0.211-0.004,0.397-0.007,0.558-0.007l0.043,0.477c-0.405,0.028-0.735,0.075-0.989,0.14 c-0.254,0.066-0.452,0.168-0.593,0.309c-0.142,0.14-0.238,0.325-0.29,0.553c-0.052,0.229-0.078,0.516-0.078,0.862L31.844,36.454 L31.844,36.454z"/>
        <path fill="#1D1D1B" d="M43.085,27.613c0.114,0,0.308,0.002,0.586,0.007c0.278,0.005,0.586,0.007,0.926,0.007 c0.338,0,0.682,0.002,1.03,0.007c0.348,0.005,0.65,0.007,0.904,0.007c0.169,0.402,0.341,0.798,0.515,1.191 c0.175,0.392,0.351,0.789,0.53,1.191l4.039,8.826l3.912-9.008c0.161-0.364,0.316-0.731,0.466-1.1 c0.15-0.369,0.301-0.736,0.452-1.1c0.179,0,0.435-0.002,0.77-0.007c0.334-0.004,0.675-0.007,1.023-0.007 c0.358,0,0.692-0.002,1.002-0.007c0.311-0.005,0.532-0.007,0.664-0.007l0.028,0.477c-0.415,0.028-0.747,0.073-0.996,0.133 c-0.249,0.061-0.44,0.154-0.571,0.28c-0.132,0.126-0.217,0.302-0.254,0.525c-0.038,0.224-0.052,0.509-0.042,0.855l0.297,9.429 c0.009,0.224,0.04,0.411,0.092,0.56c0.052,0.15,0.146,0.273,0.282,0.372c0.137,0.098,0.33,0.17,0.579,0.217 c0.25,0.047,0.582,0.08,0.996,0.098l-0.028,0.504c-0.169,0-0.367-0.002-0.593-0.007c-0.226-0.004-0.466-0.006-0.721-0.006 c-0.245,0-0.494-0.002-0.749-0.007c-0.253-0.005-0.494-0.007-0.72-0.007c-0.188,0-0.384,0.002-0.585,0.007 c-0.203,0.005-0.403,0.007-0.601,0.007c-0.198,0-0.386,0.002-0.565,0.006c-0.179,0.005-0.334,0.007-0.466,0.007l-0.042-0.477 c0.339-0.028,0.609-0.072,0.812-0.133c0.202-0.061,0.357-0.157,0.466-0.287c0.107-0.131,0.174-0.306,0.198-0.526 c0.023-0.219,0.029-0.501,0.021-0.847l-0.297-8.939c-0.829,1.896-1.646,3.776-2.45,5.639c-0.805,1.863-1.608,3.757-2.408,5.682 l-0.678,0.083c-0.273-0.663-0.927-2.125-1.963-4.385c-1.035-2.26-2.01-4.39-2.923-6.389l-0.31,8.126 c-0.019,0.439-0.01,0.782,0.028,1.029c0.037,0.248,0.117,0.434,0.24,0.561c0.122,0.126,0.297,0.21,0.523,0.252 s0.517,0.077,0.875,0.105l-0.028,0.504c-0.301,0-0.626-0.005-0.975-0.014c-0.348-0.01-0.748-0.015-1.2-0.015 c-0.358,0-0.732,0.005-1.123,0.015c-0.391,0.009-0.752,0.014-1.081,0.014l-0.043-0.477c0.386-0.037,0.702-0.082,0.946-0.133 c0.245-0.051,0.438-0.157,0.579-0.315c0.142-0.159,0.241-0.397,0.297-0.714s0.094-0.756,0.113-1.317l0.297-7.244 c0.009-0.336,0.009-0.624,0-0.861c-0.01-0.238-0.033-0.443-0.071-0.617c-0.038-0.173-0.09-0.32-0.155-0.441 c-0.066-0.121-0.151-0.233-0.254-0.336c-0.179-0.177-0.405-0.298-0.677-0.364c-0.274-0.064-0.589-0.106-0.947-0.126 L43.085,27.613z"/>
        <path fill="#1D1D1B" d="M69.311,36.089h-4.703l-1.087,2.76c-0.189,0.533-0.282,0.869-0.282,1.009 c0,0.243,0.115,0.412,0.346,0.504c0.231,0.094,0.643,0.154,1.236,0.182l-0.042,0.505c-0.349,0-0.739-0.005-1.172-0.015 c-0.433-0.009-0.862-0.014-1.285-0.014c-0.349,0-0.708,0.005-1.081,0.014c-0.372,0.01-0.732,0.015-1.08,0.015l-0.028-0.477 c0.367-0.028,0.668-0.072,0.903-0.133c0.235-0.061,0.44-0.173,0.614-0.336s0.339-0.387,0.495-0.672 c0.155-0.285,0.336-0.666,0.543-1.142l4.054-9.484c0.112-0.281,0.208-0.526,0.289-0.736c0.08-0.21,0.167-0.436,0.261-0.679 l0.89-0.112c0.104,0.448,0.214,0.859,0.332,1.232c0.118,0.374,0.229,0.714,0.333,1.022l3.177,9.135 c0.142,0.411,0.269,0.733,0.381,0.966c0.113,0.234,0.245,0.414,0.396,0.539c0.151,0.126,0.341,0.213,0.573,0.259 c0.23,0.047,0.529,0.084,0.896,0.112l-0.042,0.505c-0.396,0-0.831-0.005-1.307-0.015c-0.476-0.009-0.953-0.014-1.434-0.014 c-0.395,0-0.795,0.005-1.2,0.014c-0.404,0.01-0.805,0.015-1.201,0.015l-0.042-0.477c0.526-0.037,0.903-0.1,1.129-0.188 c0.226-0.089,0.339-0.254,0.339-0.498c0-0.104-0.019-0.222-0.057-0.357c-0.037-0.135-0.084-0.288-0.141-0.456L69.311,36.089z M64.933,35.277h4.11l-1.893-5.548L64.933,35.277z"/>
        <path fill="#1D1D1B" d="M86.611,41.259c-0.245-0.345-0.49-0.679-0.734-1.001c-0.244-0.322-0.503-0.647-0.776-0.974l-7.612-8.953 v8.28c0,0.439,0.026,0.782,0.078,1.029c0.052,0.248,0.148,0.434,0.29,0.561c0.141,0.126,0.332,0.21,0.572,0.252 c0.24,0.042,0.553,0.077,0.938,0.105l-0.027,0.504c-0.302,0-0.657-0.005-1.066-0.014c-0.41-0.01-0.841-0.015-1.292-0.015 c-0.358,0-0.733,0.005-1.123,0.015c-0.391,0.009-0.75,0.014-1.081,0.014l-0.042-0.477c0.376-0.037,0.687-0.082,0.932-0.133 c0.245-0.051,0.44-0.157,0.586-0.315c0.146-0.159,0.247-0.397,0.304-0.714c0.057-0.317,0.085-0.756,0.085-1.317v-7.02 c0-0.392-0.005-0.71-0.014-0.953c-0.01-0.243-0.031-0.441-0.063-0.595c-0.033-0.154-0.078-0.283-0.134-0.386 c-0.057-0.103-0.132-0.21-0.226-0.322c-0.095-0.122-0.188-0.225-0.282-0.309c-0.094-0.084-0.203-0.154-0.325-0.21 c-0.123-0.056-0.273-0.099-0.453-0.126c-0.179-0.028-0.399-0.051-0.663-0.07l0.028-0.504c0.113,0,0.28,0.002,0.501,0.007 c0.221,0.005,0.468,0.007,0.742,0.007c0.273,0,0.555,0.002,0.847,0.007c0.292,0.005,0.565,0.007,0.819,0.007l9.081,10.55v-8.112 c0-0.439-0.026-0.782-0.078-1.029c-0.052-0.248-0.148-0.435-0.29-0.561c-0.141-0.126-0.334-0.21-0.579-0.251 c-0.246-0.042-0.561-0.078-0.947-0.105l0.029-0.504c0.301,0,0.659,0.005,1.073,0.014c0.414,0.009,0.847,0.014,1.299,0.014 c0.179,0,0.367-0.002,0.564-0.007c0.197-0.004,0.394-0.009,0.587-0.014c0.192-0.004,0.376-0.009,0.551-0.014 c0.175-0.005,0.327-0.007,0.459-0.007l0.015,0.477c-0.367,0.037-0.668,0.084-0.904,0.14c-0.235,0.056-0.42,0.163-0.557,0.322 c-0.138,0.159-0.234,0.396-0.291,0.715c-0.057,0.317-0.085,0.756-0.085,1.316v10.536L86.611,41.259z"/>
        <path fill="#1D1D1B" d="M90.537,40.586c0.367-0.028,0.664-0.072,0.891-0.133s0.402-0.155,0.529-0.281 c0.127-0.125,0.214-0.298,0.262-0.518c0.047-0.22,0.069-0.507,0.069-0.861v-9.429c0-0.224-0.019-0.411-0.056-0.56 c-0.039-0.149-0.121-0.273-0.248-0.372c-0.127-0.098-0.309-0.17-0.543-0.218c-0.235-0.046-0.545-0.079-0.933-0.098l0.028-0.504 c0.15,0,0.334,0.002,0.551,0.007c0.217,0.005,0.448,0.007,0.693,0.007c0.254,0,0.51,0.002,0.769,0.007 c0.259,0.005,0.501,0.007,0.728,0.007c0.18,0,0.379-0.002,0.602-0.007c0.221-0.004,0.439-0.007,0.657-0.007 c0.216,0,0.42-0.002,0.614-0.007c0.191-0.005,0.354-0.007,0.486-0.007l0.043,0.477c-0.367,0.028-0.664,0.073-0.891,0.133 c-0.227,0.061-0.404,0.154-0.537,0.28c-0.131,0.126-0.221,0.299-0.268,0.519c-0.049,0.22-0.071,0.502-0.071,0.848v9.443 c0,0.224,0.019,0.411,0.058,0.56c0.036,0.15,0.119,0.273,0.246,0.372c0.126,0.098,0.309,0.17,0.543,0.217 c0.235,0.047,0.551,0.08,0.946,0.098l-0.028,0.504c-0.15,0-0.337-0.002-0.558-0.007c-0.222-0.004-0.459-0.006-0.714-0.006 c-0.244,0-0.493-0.002-0.748-0.007c-0.254-0.005-0.494-0.007-0.721-0.007c-0.188,0-0.391,0.002-0.607,0.007 s-0.434,0.007-0.648,0.007c-0.217,0-0.423,0.002-0.615,0.006c-0.192,0.005-0.354,0.007-0.486,0.007L90.537,40.586z"/>
        <path fill="#1D1D1B" d="M97.273,27.613c0.34,0,0.75,0.005,1.236,0.014c0.484,0.009,0.967,0.014,1.447,0.014 c0.479,0,0.982-0.026,1.512-0.077c0.527-0.051,1.035-0.077,1.524-0.077c1.017,0,1.995,0.107,2.938,0.322 c0.939,0.215,1.775,0.57,2.506,1.065c0.729,0.495,1.313,1.142,1.75,1.94c0.438,0.798,0.658,1.777,0.658,2.935 c0,1.196-0.217,2.255-0.65,3.181c-0.434,0.924-1.016,1.704-1.75,2.339s-1.588,1.119-2.563,1.45 c-0.976,0.332-2.003,0.498-3.086,0.498c-0.479,0-0.993-0.03-1.539-0.09c-0.546-0.062-1.06-0.092-1.54-0.092 c-0.188,0-0.388,0.002-0.6,0.007c-0.211,0.005-0.426,0.007-0.643,0.007c-0.218,0-0.425,0.002-0.623,0.006 c-0.197,0.005-0.371,0.007-0.521,0.007l-0.042-0.477c0.396-0.028,0.715-0.07,0.96-0.126s0.434-0.149,0.564-0.28 c0.133-0.131,0.219-0.305,0.263-0.525c0.042-0.22,0.063-0.507,0.063-0.861V29.42c0-0.251-0.02-0.457-0.058-0.616 c-0.038-0.159-0.12-0.288-0.247-0.386s-0.318-0.168-0.572-0.21s-0.594-0.072-1.017-0.091L97.273,27.613z M100.775,38.569 c0,0.271,0.01,0.521,0.027,0.75c0.02,0.229,0.09,0.428,0.213,0.596c0.121,0.168,0.319,0.299,0.592,0.392 c0.273,0.093,0.664,0.14,1.172,0.14c0.914,0,1.746-0.143,2.494-0.427c0.748-0.285,1.391-0.698,1.928-1.24 c0.535-0.542,0.953-1.2,1.25-1.975c0.297-0.776,0.445-1.649,0.445-2.621c0-0.99-0.153-1.856-0.459-2.599 c-0.307-0.742-0.728-1.363-1.265-1.863c-0.536-0.5-1.172-0.875-1.905-1.127c-0.736-0.252-1.531-0.379-2.388-0.379 c-0.302,0-0.58,0.02-0.833,0.057c-0.255,0.038-0.477,0.089-0.664,0.154c-0.188,0.064-0.337,0.136-0.445,0.21 c-0.107,0.075-0.162,0.154-0.162,0.239V38.569z"/>
        <path fill="#1D1D1B" d="M120.505,36.089h-4.704l-1.086,2.76c-0.189,0.533-0.283,0.869-0.283,1.009 c0,0.243,0.115,0.412,0.346,0.504c0.231,0.094,0.644,0.154,1.236,0.182l-0.043,0.505c-0.348,0-0.738-0.005-1.172-0.015 c-0.433-0.009-0.861-0.014-1.285-0.014c-0.349,0-0.707,0.005-1.08,0.014c-0.373,0.01-0.732,0.015-1.08,0.015l-0.028-0.477 c0.366-0.028,0.668-0.072,0.903-0.133c0.234-0.061,0.439-0.173,0.614-0.336s0.339-0.387,0.494-0.672 c0.155-0.285,0.336-0.666,0.544-1.142l4.053-9.484c0.112-0.281,0.209-0.526,0.291-0.736c0.08-0.21,0.166-0.436,0.26-0.679 l0.891-0.112c0.104,0.448,0.213,0.859,0.331,1.232c0.118,0.374,0.229,0.714,0.333,1.022l3.177,9.135 c0.142,0.411,0.269,0.733,0.382,0.966c0.112,0.234,0.246,0.414,0.396,0.539c0.15,0.126,0.341,0.213,0.57,0.259 c0.23,0.047,0.531,0.084,0.897,0.112l-0.042,0.505c-0.396,0-0.831-0.005-1.307-0.015c-0.475-0.009-0.952-0.014-1.434-0.014 c-0.396,0-0.795,0.005-1.199,0.014c-0.405,0.01-0.806,0.015-1.201,0.015l-0.041-0.477c0.527-0.037,0.904-0.1,1.129-0.188 c0.227-0.089,0.339-0.254,0.339-0.498c0-0.104-0.019-0.222-0.058-0.357c-0.037-0.135-0.084-0.288-0.141-0.456L120.505,36.089z M116.127,35.277h4.109l-1.893-5.548L116.127,35.277z"/>
        <path fill="#1D1D1B" d="M126.111,27.613c0.34,0,0.75,0.005,1.236,0.014c0.484,0.009,0.967,0.014,1.447,0.014 s0.982-0.026,1.512-0.077c0.526-0.051,1.034-0.077,1.524-0.077c1.017,0,1.996,0.107,2.938,0.322 c0.941,0.215,1.776,0.57,2.506,1.065c0.73,0.495,1.313,1.142,1.752,1.94c0.438,0.798,0.656,1.777,0.656,2.935 c0,1.196-0.217,2.255-0.649,3.181c-0.433,0.924-1.017,1.704-1.75,2.339c-0.734,0.635-1.589,1.119-2.563,1.45 c-0.974,0.332-2.002,0.498-3.086,0.498c-0.48,0-0.992-0.03-1.539-0.09c-0.547-0.062-1.06-0.092-1.539-0.092 c-0.188,0-0.389,0.002-0.601,0.007s-0.427,0.007-0.642,0.007c-0.217,0-0.424,0.002-0.623,0.006 c-0.197,0.005-0.373,0.007-0.522,0.007l-0.042-0.477c0.396-0.028,0.715-0.07,0.96-0.126s0.433-0.149,0.565-0.28 c0.131-0.131,0.218-0.305,0.261-0.525c0.042-0.22,0.063-0.507,0.063-0.861V29.42c0-0.251-0.02-0.457-0.057-0.616 c-0.038-0.159-0.12-0.288-0.248-0.386c-0.127-0.098-0.318-0.168-0.572-0.21s-0.593-0.072-1.017-0.091L126.111,27.613z M129.613,38.569c0,0.271,0.01,0.521,0.029,0.75c0.019,0.229,0.088,0.428,0.211,0.596s0.319,0.299,0.594,0.392 c0.273,0.093,0.664,0.14,1.172,0.14c0.912,0,1.744-0.143,2.492-0.427s1.392-0.698,1.928-1.24s0.953-1.2,1.25-1.975 c0.296-0.776,0.445-1.649,0.445-2.621c0-0.99-0.153-1.856-0.459-2.599c-0.307-0.742-0.728-1.363-1.264-1.863 c-0.537-0.5-1.173-0.875-1.906-1.127c-0.734-0.252-1.53-0.379-2.387-0.379c-0.303,0-0.58,0.02-0.834,0.057 c-0.253,0.038-0.475,0.089-0.664,0.154c-0.188,0.064-0.337,0.136-0.443,0.21c-0.109,0.075-0.164,0.154-0.164,0.239V38.569z"/>
        <path fill="#1D1D1B" d="M144.852,38.779c0,0.318,0.021,0.58,0.058,0.785c0.036,0.206,0.12,0.367,0.247,0.484 c0.127,0.117,0.306,0.198,0.537,0.245c0.229,0.047,0.539,0.07,0.924,0.07h1.045c0.546,0,0.99-0.044,1.334-0.133 c0.343-0.088,0.633-0.238,0.869-0.448c0.234-0.21,0.445-0.488,0.629-0.833c0.184-0.346,0.383-0.771,0.6-1.275l0.551,0.126 c-0.074,0.271-0.146,0.56-0.211,0.869c-0.065,0.308-0.127,0.612-0.184,0.91c-0.057,0.299-0.104,0.579-0.141,0.841 s-0.062,0.476-0.07,0.645c-1.874,0-3.393-0.005-4.555-0.014c-1.164-0.01-2.031-0.015-2.605-0.015c-0.169,0-0.369,0.002-0.6,0.007 s-0.469,0.007-0.713,0.007c-0.246,0-0.482,0.002-0.713,0.006c-0.23,0.005-0.426,0.007-0.586,0.007l-0.043-0.477 c0.434-0.028,0.781-0.072,1.045-0.133s0.467-0.155,0.607-0.281c0.141-0.125,0.234-0.298,0.282-0.518 c0.047-0.22,0.071-0.507,0.071-0.861v-9.429c0-0.224-0.021-0.411-0.063-0.56c-0.042-0.149-0.128-0.273-0.255-0.372 c-0.126-0.098-0.311-0.17-0.551-0.218c-0.239-0.046-0.563-0.079-0.967-0.098l0.041-0.504c0.18,0,0.385,0.002,0.614,0.007 c0.231,0.005,0.466,0.007,0.699,0.007c0.245,0,0.483,0.002,0.713,0.007c0.231,0.005,0.444,0.007,0.644,0.007 c0.367,0,1.139-0.005,2.315-0.014s2.675-0.014,4.491-0.014c-0.057,0.477-0.1,0.976-0.127,1.5 c-0.028,0.524-0.047,1.079-0.057,1.667l-0.565,0.014c-0.085-0.485-0.179-0.887-0.282-1.205c-0.104-0.317-0.25-0.572-0.438-0.763 c-0.188-0.191-0.434-0.327-0.734-0.407c-0.301-0.079-0.691-0.119-1.172-0.119h-2.02c-0.283,0-0.465,0.028-0.545,0.084 c-0.078,0.056-0.119,0.2-0.119,0.434v4.848l4.773-0.14l0.098,0.098l-0.027,1.163c-0.856-0.075-1.701-0.126-2.535-0.154 c-0.833-0.028-1.604-0.051-2.309-0.07v4.217H144.852z"/>
        <path fill="#1D1D1B" d="M153.326,37.154c0.188,0.486,0.388,0.934,0.6,1.345c0.213,0.411,0.467,0.769,0.764,1.072 c0.295,0.304,0.642,0.542,1.037,0.714c0.396,0.173,0.871,0.259,1.428,0.259c0.367,0,0.705-0.061,1.017-0.182 s0.583-0.294,0.819-0.518c0.236-0.224,0.418-0.488,0.551-0.792c0.132-0.303,0.197-0.637,0.197-1.001 c0-0.458-0.084-0.85-0.254-1.177c-0.168-0.327-0.396-0.61-0.678-0.848c-0.281-0.238-0.603-0.445-0.959-0.623 c-0.357-0.177-0.726-0.351-1.103-0.519c-0.425-0.188-0.851-0.393-1.278-0.616c-0.429-0.225-0.813-0.491-1.15-0.799 c-0.34-0.308-0.617-0.663-0.834-1.065c-0.217-0.401-0.324-0.877-0.324-1.429c0-0.589,0.119-1.109,0.359-1.562 c0.24-0.453,0.564-0.834,0.976-1.142c0.409-0.308,0.885-0.542,1.427-0.701c0.541-0.159,1.118-0.238,1.729-0.238 c0.594,0,1.143,0.045,1.646,0.133c0.504,0.089,1.043,0.208,1.618,0.357c-0.029,0.299-0.053,0.577-0.071,0.834 c-0.019,0.257-0.03,0.509-0.034,0.757c-0.006,0.248-0.011,0.499-0.015,0.756c-0.005,0.257-0.007,0.535-0.007,0.833l-0.594,0.056 c-0.084-0.99-0.387-1.73-0.91-2.221c-0.523-0.491-1.227-0.735-2.111-0.735c-0.338,0-0.65,0.051-0.932,0.154 c-0.283,0.103-0.528,0.251-0.735,0.448c-0.207,0.197-0.37,0.43-0.487,0.701c-0.119,0.271-0.177,0.575-0.177,0.911 c0,0.449,0.073,0.824,0.22,1.128c0.146,0.304,0.346,0.567,0.6,0.792c0.254,0.225,0.549,0.418,0.883,0.582 s0.686,0.325,1.053,0.483c0.451,0.196,0.905,0.411,1.362,0.645c0.456,0.234,0.866,0.509,1.229,0.826 c0.361,0.317,0.656,0.687,0.883,1.107c0.226,0.42,0.339,0.916,0.339,1.485c0,0.635-0.132,1.198-0.396,1.688 c-0.265,0.491-0.613,0.906-1.046,1.247c-0.433,0.341-0.932,0.601-1.497,0.778c-0.564,0.177-1.144,0.266-1.736,0.266 c-0.519,0-1.055-0.051-1.61-0.154s-1.144-0.243-1.765-0.42c-0.065-0.617-0.146-1.195-0.24-1.737s-0.221-1.121-0.381-1.737 L153.326,37.154z"/>
      </g>
      <g>
        <path fill="#1D1D1B" d="M12.553,50.666c0.339,0,0.75,0.005,1.236,0.014c0.484,0.009,0.968,0.014,1.447,0.014 c0.48,0,0.983-0.026,1.511-0.077c0.527-0.051,1.036-0.077,1.525-0.077c1.017,0,1.996,0.108,2.937,0.323 c0.942,0.214,1.777,0.57,2.507,1.065c0.729,0.495,1.313,1.141,1.751,1.94c0.438,0.798,0.657,1.776,0.657,2.937 c0,1.194-0.217,2.254-0.65,3.18c-0.433,0.925-1.016,1.703-1.751,2.338c-0.735,0.637-1.589,1.121-2.563,1.451 c-0.974,0.332-2.003,0.498-3.085,0.498c-0.48,0-0.994-0.031-1.54-0.092c-0.545-0.061-1.059-0.091-1.539-0.091 c-0.188,0-0.388,0.003-0.6,0.007c-0.212,0.006-0.426,0.008-0.643,0.008c-0.217,0-0.424,0.002-0.622,0.008 c-0.198,0.004-0.373,0.006-0.522,0.006l-0.042-0.477c0.396-0.029,0.716-0.07,0.96-0.125c0.245-0.057,0.433-0.15,0.565-0.281 c0.131-0.131,0.218-0.305,0.261-0.524s0.064-0.507,0.064-0.862v-9.374c0-0.251-0.019-0.458-0.056-0.615 c-0.038-0.159-0.12-0.288-0.248-0.386c-0.127-0.098-0.318-0.168-0.572-0.209c-0.254-0.042-0.594-0.073-1.017-0.092L12.553,50.666 z M16.055,61.622c0,0.271,0.009,0.521,0.028,0.75s0.089,0.427,0.212,0.595c0.122,0.168,0.319,0.301,0.593,0.393 c0.272,0.095,0.663,0.142,1.172,0.142c0.913,0,1.744-0.144,2.493-0.429c0.748-0.284,1.391-0.697,1.928-1.239 c0.536-0.541,0.953-1.2,1.25-1.976c0.296-0.774,0.445-1.647,0.445-2.619c0-0.99-0.152-1.856-0.458-2.6 c-0.306-0.743-0.728-1.363-1.264-1.863c-0.537-0.5-1.172-0.876-1.906-1.128c-0.735-0.253-1.531-0.378-2.387-0.378 c-0.301,0-0.579,0.019-0.833,0.055c-0.254,0.038-0.475,0.089-0.663,0.154c-0.188,0.066-0.337,0.136-0.445,0.21 c-0.109,0.075-0.163,0.154-0.163,0.239v9.694H16.055z"/>
        <path fill="#1D1D1B" d="M27.918,63.641c0.367-0.029,0.664-0.074,0.89-0.134c0.226-0.062,0.403-0.153,0.53-0.28 c0.127-0.125,0.214-0.299,0.261-0.518c0.048-0.219,0.071-0.507,0.071-0.861v-9.43c0-0.224-0.02-0.412-0.057-0.56 c-0.038-0.149-0.12-0.274-0.247-0.372c-0.127-0.099-0.309-0.17-0.544-0.217c-0.235-0.047-0.546-0.08-0.932-0.099l0.028-0.504 c0.15,0,0.334,0.002,0.551,0.007c0.216,0.005,0.447,0.007,0.692,0.007c0.254,0,0.511,0.002,0.77,0.006 c0.259,0.005,0.501,0.007,0.727,0.007c0.179,0,0.379-0.002,0.6-0.007c0.221-0.004,0.44-0.006,0.657-0.006 c0.217,0,0.421-0.002,0.615-0.007c0.192-0.005,0.355-0.007,0.487-0.007l0.042,0.476c-0.367,0.028-0.663,0.073-0.889,0.133 c-0.226,0.062-0.405,0.154-0.537,0.281c-0.132,0.125-0.222,0.299-0.269,0.518c-0.047,0.219-0.071,0.502-0.071,0.847v9.442 c0,0.225,0.019,0.412,0.057,0.563c0.038,0.148,0.12,0.271,0.247,0.371c0.127,0.098,0.308,0.17,0.544,0.217 c0.235,0.047,0.55,0.08,0.946,0.098l-0.028,0.504c-0.15,0-0.336-0.002-0.557-0.006c-0.222-0.006-0.459-0.008-0.713-0.008 c-0.245,0-0.495-0.002-0.748-0.008c-0.255-0.004-0.495-0.007-0.721-0.007c-0.188,0-0.39,0.003-0.606,0.007 c-0.217,0.006-0.434,0.008-0.65,0.008c-0.217,0-0.422,0.002-0.614,0.008c-0.193,0.004-0.355,0.006-0.487,0.006L27.918,63.641z"/>
        <path fill="#1D1D1B" d="M46.348,54.365c-0.038-0.551-0.163-1.032-0.375-1.444c-0.211-0.411-0.487-0.751-0.826-1.022 c-0.339-0.27-0.734-0.471-1.187-0.603c-0.452-0.13-0.937-0.196-1.455-0.196c-0.97,0-1.813,0.147-2.528,0.441 c-0.716,0.294-1.309,0.706-1.779,1.233c-0.472,0.528-0.822,1.163-1.052,1.906c-0.231,0.742-0.347,1.563-0.347,2.459 c0,0.896,0.118,1.739,0.354,2.528c0.235,0.789,0.588,1.476,1.059,2.06c0.47,0.584,1.066,1.045,1.787,1.387 c0.72,0.341,1.56,0.511,2.521,0.511c0.132,0,0.351-0.015,0.656-0.042c0.306-0.027,0.62-0.079,0.939-0.152 c0.32-0.076,0.601-0.174,0.84-0.295c0.24-0.121,0.36-0.275,0.36-0.463v-2.773c0-0.225-0.029-0.412-0.085-0.561 s-0.17-0.273-0.339-0.371c-0.169-0.099-0.412-0.171-0.728-0.218c-0.315-0.046-0.732-0.079-1.25-0.099l0.028-0.504 c0.226,0,0.473,0.002,0.742,0.006c0.268,0.006,0.534,0.009,0.797,0.009c0.273,0,0.537,0.002,0.791,0.007 c0.254,0.004,0.485,0.006,0.692,0.006c0.188,0,0.386-0.002,0.593-0.006c0.207-0.005,0.409-0.007,0.606-0.007 c0.197,0,0.386-0.003,0.565-0.009c0.179-0.004,0.339-0.006,0.48-0.006l0.042,0.477c-0.273,0.027-0.495,0.07-0.664,0.125 c-0.169,0.057-0.304,0.148-0.402,0.279c-0.099,0.132-0.165,0.308-0.198,0.527c-0.033,0.219-0.049,0.502-0.049,0.848v0.896 c0,0.448,0.005,0.882,0.015,1.296c0.009,0.416,0.037,0.754,0.084,1.016c-0.762,0.205-1.542,0.388-2.337,0.547 c-0.796,0.158-1.565,0.238-2.309,0.238c-1.102,0-2.116-0.164-3.044-0.49c-0.927-0.328-1.727-0.789-2.4-1.389 c-0.674-0.597-1.198-1.318-1.575-2.164c-0.377-0.845-0.565-1.787-0.565-2.822c0-1.195,0.214-2.239,0.643-3.131 c0.428-0.892,1.015-1.636,1.758-2.235c0.744-0.598,1.615-1.043,2.613-1.337c0.998-0.294,2.071-0.441,3.22-0.441 c0.292,0,0.612,0.014,0.96,0.042c0.347,0.028,0.699,0.067,1.052,0.119c0.353,0.051,0.701,0.109,1.044,0.175 c0.344,0.065,0.657,0.136,0.939,0.21c-0.057,0.598-0.087,1.161-0.091,1.688c-0.005,0.528-0.007,1.091-0.007,1.688L46.348,54.365z "/>
        <path fill="#1D1D1B" d="M49.751,63.641c0.367-0.029,0.664-0.074,0.89-0.134c0.226-0.062,0.402-0.153,0.529-0.28 c0.127-0.125,0.214-0.299,0.262-0.518c0.047-0.219,0.07-0.507,0.07-0.861v-9.43c0-0.224-0.019-0.412-0.057-0.56 c-0.038-0.149-0.12-0.274-0.247-0.372c-0.127-0.099-0.308-0.17-0.543-0.217c-0.236-0.047-0.546-0.08-0.932-0.099l0.028-0.504 c0.15,0,0.334,0.002,0.55,0.007c0.217,0.005,0.448,0.007,0.692,0.007c0.255,0,0.51,0.002,0.77,0.006 c0.259,0.005,0.501,0.007,0.728,0.007c0.179,0,0.378-0.002,0.6-0.007c0.221-0.004,0.44-0.006,0.657-0.006 c0.217,0,0.421-0.002,0.614-0.007c0.193-0.005,0.355-0.007,0.487-0.007l0.042,0.476c-0.367,0.028-0.664,0.073-0.89,0.133 c-0.225,0.062-0.404,0.154-0.537,0.281c-0.132,0.125-0.221,0.299-0.268,0.518c-0.047,0.219-0.071,0.502-0.071,0.847v9.442 c0,0.225,0.019,0.412,0.057,0.563c0.037,0.148,0.12,0.271,0.247,0.371c0.126,0.098,0.308,0.17,0.544,0.217 c0.235,0.047,0.55,0.08,0.946,0.098l-0.028,0.504c-0.151,0-0.337-0.002-0.558-0.006c-0.221-0.006-0.458-0.008-0.713-0.008 c-0.245,0-0.494-0.002-0.748-0.008c-0.254-0.004-0.494-0.007-0.72-0.007c-0.189,0-0.391,0.003-0.608,0.007 c-0.216,0.006-0.433,0.008-0.649,0.008s-0.421,0.002-0.614,0.008c-0.193,0.004-0.355,0.006-0.487,0.006L49.751,63.641z"/>
        <path fill="#1D1D1B" d="M61.91,50.694c0.32,0,0.705-0.002,1.152-0.007c0.447-0.004,0.925-0.006,1.433-0.006 c0.518,0,1.054-0.002,1.61-0.007c0.556-0.005,1.116-0.007,1.681-0.007c-0.028,0.327-0.055,0.628-0.078,0.904 c-0.024,0.275-0.042,0.546-0.057,0.813c-0.014,0.266-0.022,0.535-0.027,0.805c-0.005,0.272-0.007,0.566-0.007,0.883L67.08,54.1 c-0.085-0.504-0.177-0.93-0.275-1.275c-0.099-0.346-0.242-0.628-0.431-0.847s-0.443-0.376-0.763-0.469 c-0.32-0.094-0.744-0.141-1.271-0.141h-1.61v10.997c0,0.225,0.019,0.412,0.057,0.563c0.037,0.148,0.122,0.271,0.254,0.371 c0.132,0.098,0.332,0.17,0.6,0.217c0.269,0.047,0.633,0.08,1.095,0.098l-0.029,0.504c-0.197,0-0.421-0.002-0.67-0.006 c-0.25-0.006-0.506-0.008-0.77-0.008c-0.263,0-0.524-0.002-0.784-0.008c-0.258-0.004-0.501-0.007-0.727-0.007 c-0.188,0-0.393,0.003-0.614,0.007c-0.221,0.006-0.445,0.008-0.671,0.008c-0.226,0-0.452,0.002-0.678,0.008 c-0.226,0.004-0.429,0.006-0.608,0.006l-0.042-0.477c0.433-0.029,0.781-0.07,1.045-0.125c0.263-0.057,0.461-0.15,0.593-0.281 c0.132-0.131,0.219-0.305,0.261-0.524s0.064-0.507,0.064-0.862V51.368h-1.568c-0.527,0-0.953,0.047-1.278,0.141 c-0.325,0.093-0.586,0.25-0.784,0.469c-0.198,0.219-0.349,0.501-0.452,0.847c-0.104,0.346-0.198,0.771-0.282,1.275l-0.537-0.029 v-0.883c0-0.42-0.008-0.821-0.021-1.205c-0.014-0.383-0.045-0.821-0.092-1.316c0.565,0,1.121,0.002,1.667,0.007 c0.545,0.005,1.073,0.007,1.582,0.007c0.508,0,0.981,0.002,1.419,0.006S61.582,50.694,61.91,50.694z"/>
        <path fill="#1D1D1B" d="M76.866,59.143h-4.702l-1.088,2.76c-0.188,0.533-0.283,0.869-0.283,1.008c0,0.242,0.116,0.41,0.346,0.505 c0.231,0.093,0.643,0.153,1.236,0.183l-0.042,0.504c-0.349,0-0.74-0.004-1.172-0.015c-0.434-0.008-0.862-0.013-1.286-0.013 c-0.349,0-0.708,0.005-1.08,0.013c-0.372,0.011-0.732,0.015-1.081,0.015l-0.028-0.477c0.367-0.027,0.668-0.072,0.903-0.133 c0.236-0.061,0.44-0.172,0.614-0.336c0.175-0.163,0.339-0.389,0.495-0.672c0.155-0.287,0.336-0.666,0.543-1.144l4.054-9.484 c0.113-0.281,0.209-0.526,0.29-0.736c0.08-0.21,0.167-0.437,0.261-0.68l0.889-0.112c0.104,0.448,0.214,0.859,0.333,1.233 c0.117,0.373,0.228,0.714,0.332,1.022l3.177,9.135c0.142,0.412,0.269,0.733,0.381,0.967c0.113,0.233,0.245,0.414,0.396,0.539 c0.15,0.127,0.341,0.213,0.572,0.26c0.23,0.047,0.529,0.084,0.896,0.111l-0.042,0.506c-0.396,0-0.831-0.006-1.307-0.016 c-0.475-0.008-0.953-0.014-1.433-0.014c-0.396,0-0.796,0.006-1.201,0.014c-0.404,0.01-0.805,0.016-1.2,0.016l-0.042-0.478 c0.527-0.037,0.904-0.101,1.13-0.188s0.338-0.254,0.338-0.498c0-0.103-0.019-0.221-0.056-0.356 c-0.038-0.136-0.084-0.288-0.142-0.455L76.866,59.143z M72.489,58.329h4.109l-1.893-5.548L72.489,58.329z"/>
        <path fill="#1D1D1B" d="M87.797,51.142c-0.387,0.028-0.699,0.073-0.939,0.133c-0.24,0.062-0.426,0.154-0.558,0.281 c-0.132,0.125-0.222,0.302-0.269,0.525c-0.047,0.224-0.071,0.509-0.071,0.854v8.896c0,0.317,0.019,0.58,0.057,0.784 c0.037,0.207,0.12,0.367,0.247,0.484s0.306,0.198,0.537,0.246c0.231,0.045,0.54,0.069,0.926,0.069h0.748 c0.545,0,0.994-0.044,1.342-0.134c0.348-0.088,0.643-0.237,0.883-0.447c0.238-0.21,0.449-0.488,0.628-0.834 s0.376-0.771,0.593-1.275l0.537,0.127c-0.076,0.271-0.146,0.56-0.212,0.869c-0.065,0.307-0.127,0.611-0.185,0.91 c-0.056,0.301-0.104,0.579-0.141,0.842c-0.038,0.26-0.063,0.477-0.07,0.643h-2.146c-0.621,0-1.158-0.002-1.609-0.006 c-0.453-0.004-0.839-0.006-1.159-0.006s-0.598-0.004-0.833-0.008c-0.235-0.005-0.443-0.008-0.622-0.008h-0.494 c-0.188,0-0.396,0.003-0.621,0.008c-0.226,0.004-0.452,0.008-0.678,0.008s-0.44,0.002-0.642,0.006 c-0.203,0.004-0.37,0.006-0.502,0.006l-0.042-0.475c0.385-0.029,0.699-0.074,0.939-0.134c0.24-0.062,0.426-0.153,0.558-0.28 c0.131-0.125,0.221-0.299,0.268-0.518s0.071-0.507,0.071-0.861v-9.43c0-0.224-0.021-0.412-0.063-0.56 c-0.042-0.149-0.127-0.274-0.254-0.372c-0.127-0.099-0.311-0.17-0.551-0.217c-0.24-0.047-0.563-0.08-0.967-0.099l0.042-0.504 c0.151,0,0.336,0.002,0.558,0.007c0.221,0.005,0.459,0.007,0.712,0.007c0.255,0,0.514,0.002,0.777,0.006 c0.264,0.005,0.509,0.007,0.735,0.007c0.178,0,0.381-0.002,0.607-0.007c0.226-0.004,0.452-0.006,0.678-0.006 c0.226,0,0.44-0.002,0.643-0.007c0.202-0.005,0.369-0.007,0.501-0.007L87.797,51.142z"/>
        <path fill="#1D1D1B" d="M96.977,61.832c0,0.318,0.02,0.58,0.058,0.785c0.036,0.205,0.12,0.367,0.247,0.482 c0.127,0.119,0.306,0.199,0.537,0.246c0.229,0.047,0.539,0.07,0.925,0.07h1.045c0.546,0,0.991-0.044,1.334-0.133 c0.343-0.09,0.634-0.238,0.869-0.448s0.444-0.487,0.628-0.834c0.184-0.345,0.384-0.771,0.602-1.274l0.551,0.125 c-0.076,0.271-0.146,0.561-0.213,0.869c-0.065,0.309-0.127,0.612-0.184,0.911c-0.057,0.3-0.104,0.579-0.141,0.841 c-0.039,0.262-0.063,0.477-0.071,0.645c-1.874,0-3.392-0.004-4.556-0.014c-1.162-0.01-2.03-0.015-2.604-0.015 c-0.169,0-0.369,0.003-0.601,0.007c-0.23,0.006-0.469,0.008-0.713,0.008s-0.481,0.002-0.713,0.008 c-0.23,0.004-0.424,0.006-0.586,0.006l-0.041-0.477c0.433-0.029,0.78-0.072,1.043-0.133c0.265-0.061,0.467-0.154,0.608-0.279 c0.142-0.127,0.235-0.299,0.282-0.519s0.07-0.507,0.07-0.862v-9.429c0-0.224-0.021-0.412-0.063-0.56 c-0.042-0.149-0.127-0.274-0.254-0.372c-0.127-0.099-0.31-0.17-0.55-0.217s-0.563-0.08-0.967-0.099l0.041-0.504 c0.178,0,0.383,0.002,0.614,0.007c0.231,0.005,0.464,0.007,0.7,0.007c0.245,0,0.482,0.002,0.713,0.006 c0.23,0.005,0.445,0.007,0.643,0.007c0.367,0,1.14-0.005,2.316-0.014c1.178-0.009,2.674-0.014,4.491-0.014 c-0.056,0.476-0.099,0.976-0.127,1.499c-0.028,0.524-0.048,1.079-0.056,1.667l-0.565,0.015c-0.085-0.486-0.179-0.887-0.283-1.205 c-0.104-0.318-0.249-0.573-0.438-0.764c-0.188-0.191-0.432-0.327-0.733-0.406c-0.301-0.079-0.69-0.119-1.172-0.119h-2.021 c-0.281,0-0.463,0.028-0.543,0.084c-0.082,0.055-0.121,0.2-0.121,0.434v4.848l4.773-0.141l0.1,0.1l-0.029,1.162 c-0.856-0.074-1.701-0.126-2.534-0.154c-0.833-0.027-1.604-0.051-2.31-0.07v4.217H96.977z"/>
        <path fill="#1D1D1B" d="M105.45,60.207c0.188,0.484,0.389,0.934,0.601,1.346c0.211,0.41,0.467,0.768,0.762,1.07 c0.297,0.305,0.644,0.542,1.039,0.714c0.396,0.173,0.871,0.259,1.426,0.259c0.367,0,0.705-0.06,1.017-0.182 s0.583-0.295,0.819-0.52c0.236-0.224,0.418-0.486,0.551-0.791c0.132-0.303,0.197-0.638,0.197-1.002 c0-0.457-0.084-0.849-0.254-1.176c-0.168-0.328-0.396-0.609-0.676-0.849c-0.283-0.238-0.604-0.446-0.961-0.623 c-0.357-0.177-0.725-0.351-1.102-0.519c-0.424-0.187-0.85-0.393-1.278-0.617c-0.429-0.223-0.813-0.489-1.151-0.797 c-0.338-0.31-0.617-0.664-0.832-1.065c-0.217-0.401-0.325-0.878-0.325-1.43c0-0.588,0.12-1.109,0.36-1.562 c0.239-0.453,0.564-0.834,0.975-1.143c0.41-0.308,0.885-0.542,1.426-0.7c0.542-0.159,1.118-0.238,1.73-0.238 c0.593,0,1.142,0.044,1.645,0.133s1.042,0.208,1.617,0.357c-0.028,0.298-0.053,0.577-0.071,0.834 c-0.019,0.256-0.03,0.509-0.034,0.756c-0.005,0.247-0.011,0.5-0.015,0.756c-0.005,0.257-0.007,0.535-0.007,0.834l-0.594,0.056 c-0.084-0.99-0.389-1.73-0.91-2.221c-0.522-0.49-1.227-0.735-2.112-0.735c-0.339,0-0.649,0.051-0.933,0.154 c-0.282,0.103-0.527,0.252-0.733,0.448c-0.208,0.196-0.369,0.43-0.487,0.701c-0.119,0.271-0.177,0.574-0.177,0.911 c0,0.448,0.073,0.824,0.22,1.128c0.146,0.304,0.346,0.567,0.6,0.791s0.549,0.418,0.883,0.582 c0.334,0.163,0.686,0.325,1.052,0.481c0.453,0.196,0.906,0.412,1.364,0.646c0.456,0.233,0.865,0.509,1.229,0.827 c0.361,0.316,0.656,0.686,0.883,1.105c0.226,0.42,0.338,0.918,0.338,1.486c0,0.635-0.131,1.197-0.396,1.688 c-0.264,0.49-0.612,0.906-1.045,1.248c-0.435,0.34-0.933,0.6-1.497,0.777s-1.145,0.266-1.736,0.266 c-0.52,0-1.056-0.052-1.61-0.154c-0.556-0.102-1.144-0.242-1.767-0.42c-0.065-0.616-0.146-1.194-0.24-1.736 c-0.094-0.542-0.221-1.121-0.381-1.738L105.45,60.207z"/>
      </g>
    </g>
    <g>
      <g>
        <linearGradient id="SVGID_1_" gradientUnits="userSpaceOnUse" x1="-281.3418" y1="590.8545" x2="-281.3418" y2="600.793" gradientTransform="matrix(1 0 0 -1 302.3999 688.0996)">
          <stop offset="0" style="stop-color:#000000;stop-opacity:0"/>
          <stop offset="1" style="stop-color:#000000;stop-opacity:0.2"/>
        </linearGradient>
        <path fill="url(#SVGID_1_)" d="M30.995,96.578c0,0.367-0.597,0.667-1.333,0.667H12.453c-0.736,0-1.332-0.3-1.332-0.667v-8.604 c0-0.369,0.596-0.668,1.332-0.668h17.209c0.736,0,1.333,0.299,1.333,0.668V96.578z"/>
        <linearGradient id="SVGID_2_" gradientUnits="userSpaceOnUse" x1="-259.374" y1="590.8545" x2="-259.374" y2="600.793" gradientTransform="matrix(1 0 0 -1 302.3999 688.0996)">
          <stop offset="0" style="stop-color:#0C2C40;stop-opacity:0"/>
          <stop offset="1" style="stop-color:#0C2C40;stop-opacity:0.2"/>
        </linearGradient>
        <path fill="url(#SVGID_2_)" d="M52.964,96.578c0,0.367-0.598,0.667-1.333,0.667h-17.21c-0.735,0-1.333-0.3-1.333-0.667v-8.604 c0-0.369,0.597-0.668,1.333-0.668H51.63c0.735,0,1.333,0.299,1.333,0.668L52.964,96.578L52.964,96.578z"/>
        <linearGradient id="SVGID_3_" gradientUnits="userSpaceOnUse" x1="-237.4058" y1="590.8545" x2="-237.4058" y2="600.793" gradientTransform="matrix(1 0 0 -1 302.3999 688.0996)">
          <stop offset="0" style="stop-color:#561312;stop-opacity:0"/>
          <stop offset="1" style="stop-color:#561312;stop-opacity:0.2"/>
        </linearGradient>
        <path fill="url(#SVGID_3_)" d="M74.932,96.578c0,0.367-0.598,0.667-1.333,0.667H56.39c-0.736,0-1.333-0.3-1.333-0.667v-8.604 c0-0.369,0.597-0.668,1.333-0.668h17.209c0.735,0,1.333,0.299,1.333,0.668V96.578z"/>
        <linearGradient id="SVGID_4_" gradientUnits="userSpaceOnUse" x1="-215.4365" y1="590.8545" x2="-215.4365" y2="600.793" gradientTransform="matrix(1 0 0 -1 302.3999 688.0996)">
          <stop offset="0" style="stop-color:#941916;stop-opacity:0"/>
          <stop offset="1" style="stop-color:#941916;stop-opacity:0.2"/>
        </linearGradient>
        <path fill="url(#SVGID_4_)" d="M96.9,96.578c0,0.367-0.596,0.667-1.332,0.667H78.359c-0.735,0-1.332-0.3-1.332-0.667v-8.604 c0-0.369,0.597-0.668,1.332-0.668h17.209c0.736,0,1.332,0.299,1.332,0.668V96.578z"/>
        <linearGradient id="SVGID_5_" gradientUnits="userSpaceOnUse" x1="-193.4668" y1="590.8545" x2="-193.4668" y2="600.793" gradientTransform="matrix(1 0 0 -1 302.3999 688.0996)">
          <stop offset="0" style="stop-color:#B0223B;stop-opacity:0"/>
          <stop offset="1" style="stop-color:#B0223B;stop-opacity:0.2"/>
        </linearGradient>
        <path fill="url(#SVGID_5_)" d="M118.87,96.578c0,0.367-0.597,0.667-1.332,0.667h-17.209c-0.735,0-1.333-0.3-1.333-0.667v-8.604 c0-0.369,0.598-0.668,1.333-0.668h17.209c0.735,0,1.332,0.299,1.332,0.668V96.578z"/>
        <linearGradient id="SVGID_6_" gradientUnits="userSpaceOnUse" x1="-171.4985" y1="590.8545" x2="-171.4985" y2="600.793" gradientTransform="matrix(1 0 0 -1 302.3999 688.0996)">
          <stop offset="0" style="stop-color:#5A358B;stop-opacity:0"/>
          <stop offset="1" style="stop-color:#5A358B;stop-opacity:0.2"/>
        </linearGradient>
        <path fill="url(#SVGID_6_)" d="M140.839,96.578c0,0.367-0.598,0.667-1.333,0.667h-17.209c-0.734,0-1.333-0.3-1.333-0.667v-8.604 c0-0.369,0.599-0.668,1.333-0.668h17.209c0.735,0,1.333,0.299,1.333,0.668V96.578z"/>
        <linearGradient id="SVGID_7_" gradientUnits="userSpaceOnUse" x1="-149.5288" y1="590.8545" x2="-149.5288" y2="600.793" gradientTransform="matrix(1 0 0 -1 302.3999 688.0996)">
          <stop offset="0" style="stop-color:#127ABE;stop-opacity:0"/>
          <stop offset="1" style="stop-color:#127ABE;stop-opacity:0.2"/>
        </linearGradient>
        <path fill="url(#SVGID_7_)" d="M162.809,96.578c0,0.367-0.598,0.667-1.334,0.667h-17.209c-0.734,0-1.332-0.3-1.332-0.667v-8.604 c0-0.369,0.596-0.668,1.332-0.668h17.209c0.735,0,1.334,0.299,1.334,0.668V96.578z"/>
      </g>
      <g>
        <path fill="#030404" d="M30.995,20.967c0,0.092-0.597,0.167-1.333,0.167H12.453c-0.736,0-1.332-0.075-1.332-0.167v-2.151 c0-0.092,0.596-0.167,1.332-0.167h17.209c0.736,0,1.333,0.075,1.333,0.167V20.967z"/>
        <path fill="#B0223B" d="M118.87,20.967c0,0.092-0.597,0.167-1.332,0.167h-17.209c-0.735,0-1.333-0.075-1.333-0.167v-2.151 c0-0.092,0.598-0.167,1.333-0.167h17.209c0.735,0,1.332,0.075,1.332,0.167V20.967z"/>
        <path fill="#561312" d="M74.932,20.967c0,0.092-0.597,0.167-1.333,0.167H56.391c-0.736,0-1.333-0.075-1.333-0.167v-2.151 c0-0.092,0.596-0.167,1.333-0.167h17.208c0.736,0,1.333,0.075,1.333,0.167V20.967z"/>
        <path fill="#941916" d="M96.9,20.967c0,0.092-0.596,0.167-1.332,0.167H78.359c-0.736,0-1.332-0.075-1.332-0.167v-2.151 c0-0.092,0.596-0.167,1.332-0.167h17.209c0.734,0,1.332,0.075,1.332,0.167V20.967L96.9,20.967z"/>
        <path fill="#5A358B" d="M140.839,20.967c0,0.092-0.597,0.167-1.333,0.167h-17.209c-0.734,0-1.333-0.075-1.333-0.167v-2.151 c0-0.092,0.599-0.167,1.333-0.167h17.209c0.736,0,1.333,0.075,1.333,0.167V20.967z"/>
        <path fill="#127ABE" d="M162.809,20.967c0,0.092-0.597,0.167-1.332,0.167h-17.211c-0.736,0-1.332-0.075-1.332-0.167v-2.151 c0-0.092,0.596-0.167,1.332-0.167h17.211c0.734,0,1.332,0.075,1.332,0.167V20.967z"/>
        <path fill="#0C2C40" d="M52.964,20.967c0,0.092-0.598,0.167-1.333,0.167h-17.21c-0.735,0-1.333-0.075-1.333-0.167v-2.151 c0-0.092,0.597-0.167,1.333-0.167H51.63c0.735,0,1.333,0.075,1.333,0.167L52.964,20.967L52.964,20.967z"/>
      </g>
      <g>
        <path fill="#030404" d="M30.995,86.813c0,0.734-0.597,1.332-1.333,1.332H12.453c-0.736,0-1.332-0.598-1.332-1.332V69.602 c0-0.734,0.596-1.332,1.332-1.332h17.209c0.736,0,1.333,0.598,1.333,1.332V86.813z"/>
        <path fill="#B0223B" d="M118.87,86.813c0,0.734-0.597,1.332-1.332,1.332h-17.209c-0.735,0-1.333-0.598-1.333-1.332V69.602 c0-0.734,0.598-1.332,1.333-1.332h17.209c0.735,0,1.332,0.598,1.332,1.332V86.813z"/>
        <path fill="#561312" d="M74.932,86.813c0,0.734-0.597,1.332-1.333,1.332H56.391c-0.736,0-1.333-0.598-1.333-1.332V69.602 c0-0.734,0.596-1.332,1.333-1.332h17.208c0.736,0,1.333,0.598,1.333,1.332V86.813z"/>
        <path fill="#941916" d="M96.9,86.813c0,0.734-0.596,1.332-1.332,1.332H78.359c-0.736,0-1.332-0.598-1.332-1.332V69.602 c0-0.734,0.596-1.332,1.332-1.332h17.209c0.734,0,1.332,0.598,1.332,1.332V86.813L96.9,86.813z"/>
        <path fill="#5A358B" d="M140.839,86.813c0,0.734-0.597,1.332-1.333,1.332h-17.209c-0.734,0-1.333-0.598-1.333-1.332V69.602 c0-0.734,0.599-1.332,1.333-1.332h17.209c0.736,0,1.333,0.598,1.333,1.332V86.813z"/>
        <path fill="#127ABE" d="M162.809,86.813c0,0.734-0.597,1.332-1.332,1.332h-17.211c-0.736,0-1.332-0.598-1.332-1.332V69.602 c0-0.734,0.596-1.332,1.332-1.332h17.211c0.734,0,1.332,0.598,1.332,1.332V86.813z"/>
        <path fill="#0C2C40" d="M52.964,86.813c0,0.734-0.598,1.332-1.333,1.332h-17.21c-0.735,0-1.333-0.598-1.333-1.332V69.602 c0-0.734,0.597-1.332,1.333-1.332H51.63c0.735,0,1.333,0.598,1.333,1.332L52.964,86.813L52.964,86.813z"/>
        <path fill="#5A358B" d="M140.839,64.378c0,0.735-0.597,1.332-1.333,1.332h-17.209c-0.734,0-1.333-0.595-1.333-1.332V47.169 c0-0.736,0.599-1.333,1.333-1.333h17.209c0.736,0,1.333,0.597,1.333,1.333V64.378z"/>
        <path fill="#127ABE" d="M162.809,64.378c0,0.735-0.597,1.332-1.332,1.332h-17.211c-0.736,0-1.332-0.595-1.332-1.332V47.169 c0-0.736,0.596-1.333,1.332-1.333h17.211c0.734,0,1.332,0.597,1.332,1.333V64.378z"/>
      </g>
    </g>
    <g>
      <path fill="#FFFFFF" d="M106.518,83.835V73.52h1.991v9.242h3.726l-0.1,1.073H106.518z"/>
    </g>
    <g>
      <path fill="#FFFFFF" d="M133.618,83.835l-1.153-3.479l-3.691,0.057l-1.187,3.424h-1.265l3.884-10.227l1.937-0.348l3.613,10.574 L133.618,83.835L133.618,83.835z M132.152,79.382l-1.488-4.454l-1.533,4.454H132.152z"/>
    </g>
    <g>
      <path fill="#FFFFFF" d="M156.738,81.049c0,0.455-0.072,0.862-0.217,1.221c-0.146,0.357-0.369,0.662-0.672,0.912 c-0.302,0.25-0.685,0.439-1.146,0.57c-0.463,0.13-1.016,0.195-1.656,0.195c-0.209,0-0.451-0.004-0.729-0.012 c-0.275-0.008-0.561-0.017-0.855-0.027c-0.294-0.012-0.582-0.029-0.861-0.051c-0.279-0.022-0.523-0.045-0.732-0.067V73.598 c0.396-0.045,0.848-0.078,1.355-0.102c0.508-0.021,0.986-0.033,1.436-0.033c0.545,0,1.042,0.047,1.49,0.141 c0.449,0.094,0.832,0.238,1.149,0.437c0.317,0.196,0.562,0.45,0.733,0.761s0.258,0.68,0.258,1.113 c0,0.352-0.049,0.658-0.146,0.923s-0.227,0.496-0.388,0.694c-0.161,0.197-0.351,0.357-0.567,0.48s-0.442,0.215-0.676,0.274v0.034 c0.396,0.082,0.732,0.207,1.012,0.379s0.509,0.375,0.688,0.611c0.179,0.234,0.312,0.5,0.396,0.795 C156.695,80.398,156.738,80.714,156.738,81.049z M154.254,76.148c0-0.612-0.166-1.039-0.497-1.281 c-0.333-0.243-0.801-0.364-1.403-0.364c-0.09,0-0.179,0.002-0.265,0.007c-0.085,0.004-0.161,0.01-0.229,0.016v3.324h0.66 c0.231,0,0.463-0.023,0.694-0.068s0.41-0.1,0.537-0.168c0.06-0.036,0.119-0.086,0.179-0.149c0.061-0.063,0.114-0.151,0.163-0.265 c0.048-0.111,0.087-0.252,0.117-0.424S154.254,76.395,154.254,76.148z M154.702,80.921c0-0.67-0.188-1.176-0.565-1.519 c-0.377-0.342-0.927-0.512-1.65-0.512h-0.625v3.949c0.06,0.008,0.109,0.014,0.15,0.016c0.041,0.004,0.084,0.008,0.129,0.013 c0.045,0.003,0.101,0.005,0.168,0.005c0.066,0,0.164,0,0.291,0c0.119,0,0.25-0.005,0.396-0.018 c0.146-0.01,0.288-0.025,0.425-0.043c0.14-0.02,0.265-0.043,0.382-0.074c0.115-0.029,0.206-0.063,0.273-0.1 c0.066-0.045,0.138-0.104,0.213-0.179c0.074-0.075,0.145-0.177,0.207-0.308c0.063-0.129,0.113-0.293,0.15-0.489 C154.684,81.465,154.702,81.219,154.702,80.921z"/>
    </g>
  </g>
</svg>