<?xml version="1.0" encoding="UTF-8" standalone="no"?>
<!-- Created with Inkscape (http://www.inkscape.org/) -->

<svg
   width="585.58929"
   height="134.17903"
   viewBox="0 0 154.93717 35.501534"
   version="1.1"
   id="svg5"
   xml:space="preserve"
   inkscape:export-filename="indexed-label-color.svg"
   inkscape:export-xdpi="300"
   inkscape:export-ydpi="300"
   inkscape:version="1.2.2 (b0a84865, 2022-12-01)"
   sodipodi:docname="lacli materials.svg"
   xmlns:inkscape="http://www.inkscape.org/namespaces/inkscape"
   xmlns:sodipodi="http://sodipodi.sourceforge.net/DTD/sodipodi-0.dtd"
   xmlns="http://www.w3.org/2000/svg"
   xmlns:svg="http://www.w3.org/2000/svg"><sodipodi:namedview
     id="namedview7"
     pagecolor="#ffffff"
     bordercolor="#000000"
     borderopacity="0.25"
     inkscape:showpageshadow="2"
     inkscape:pageopacity="0.0"
     inkscape:pagecheckerboard="0"
     inkscape:deskcolor="#d1d1d1"
     inkscape:document-units="mm"
     showgrid="false"
     inkscape:zoom="2.1649824"
     inkscape:cx="298.61675"
     inkscape:cy="122.86474"
     inkscape:window-width="1920"
     inkscape:window-height="982"
     inkscape:window-x="60"
     inkscape:window-y="25"
     inkscape:window-maximized="0"
     inkscape:current-layer="layer1" /><defs
     id="defs2"><inkscape:path-effect
       effect="powermask"
       id="path-effect4944"
       is_visible="true"
       lpeversion="1"
       uri="#mask-powermask-path-effect4944"
       invert="false"
       hide_mask="false"
       background="true"
       background_color="#ffffffff" /><rect
       x="95.63588"
       y="-147.73022"
       width="260.47171"
       height="65.312309"
       id="rect1977" /><rect
       x="95.63588"
       y="-147.73022"
       width="454.58936"
       height="136.63583"
       id="rect1977-7" /><rect
       x="95.63588"
       y="-147.73022"
       width="534.16138"
       height="286.13013"
       id="rect1977-7-7" /><mask
       maskUnits="userSpaceOnUse"
       id="mask-powermask-path-effect4944"><path
         id="mask-powermask-path-effect4944_box"
         style="fill:#ffffff;fill-opacity:1"
         d="M 0.6457665,1.351095 H 157.58293 V 38.852628 H 0.6457665 Z" /><g
         id="g4942"
         style=""><rect
           style="fill:none;fill-opacity:1;stroke:#000000;stroke-width:1;stroke-linecap:square;stroke-linejoin:bevel;stroke-miterlimit:15.7;stroke-dasharray:none;stroke-opacity:1;paint-order:stroke fill markers"
           id="rect4910"
           width="150.71532"
           height="31.372423"
           x="3.7380371"
           y="4.535707"
           ry="5.1941099"
           d="M 8.932147,4.535707 H 149.25924 c 2.87754,0 5.19411,2.316573 5.19411,5.1941099 V 30.71402 c 0,2.877537 -2.31657,5.19411 -5.19411,5.19411 H 8.932147 c -2.8775369,0 -5.1941099,-2.316573 -5.1941099,-5.19411 V 9.7298169 c 0,-2.8775369 2.316573,-5.1941099 5.1941099,-5.1941099 z" /><text
           xml:space="preserve"
           transform="matrix(0.26458333,0,0,0.26458333,-25.930502,48.09098)"
           id="text4916"
           style="font-style:normal;font-variant:normal;font-weight:normal;font-stretch:normal;font-size:37.3333px;font-family:'Lao MN';-inkscape-font-specification:'Lao MN, Normal';font-variant-ligatures:normal;font-variant-caps:normal;font-variant-numeric:normal;font-variant-east-asian:normal;text-align:center;white-space:pre;shape-inside:url(#rect1977);display:inline;fill:#000000;fill-opacity:1;stroke:none;stroke-width:1.51181;stroke-linecap:square;stroke-linejoin:bevel;stroke-miterlimit:15.7;stroke-dasharray:none;stroke-opacity:1;paint-order:stroke fill markers"><tspan
             x="130.78882"
             y="-114.88154"
             id="tspan5124">Indexed by
</tspan></text><text
           xml:space="preserve"
           transform="matrix(0.26458333,0,0,0.26458333,-39.159681,60.555251)"
           id="text4922"
           style="font-style:normal;font-variant:normal;font-weight:normal;font-stretch:normal;font-size:37.3333px;font-family:'Lao MN';-inkscape-font-specification:'Lao MN, Normal';font-variant-ligatures:normal;font-variant-caps:normal;font-variant-numeric:normal;font-variant-east-asian:normal;text-align:center;white-space:pre;shape-inside:url(#rect1977-7);display:inline;fill:#000000;fill-opacity:1;stroke:none;stroke-width:1.51181;stroke-linecap:square;stroke-linejoin:bevel;stroke-miterlimit:15.7;stroke-dasharray:none;stroke-opacity:1;paint-order:stroke fill markers"><tspan
             x="206.73805"
             y="-114.88154"
             id="tspan5126">Indexado por
</tspan></text><text
           xml:space="preserve"
           transform="matrix(0.26458333,0,0,0.26458333,27.446099,49.996738)"
           id="text4928"
           style="font-style:normal;font-variant:normal;font-weight:bold;font-stretch:normal;font-size:64px;font-family:'EB Garamond';-inkscape-font-specification:'EB Garamond, Bold';font-variant-ligatures:normal;font-variant-caps:normal;font-variant-numeric:normal;font-variant-east-asian:normal;text-align:center;white-space:pre;shape-inside:url(#rect1977-7-7);display:inline;fill:#000000;fill-opacity:1;stroke:none;stroke-width:1.51181;stroke-linecap:square;stroke-linejoin:bevel;stroke-miterlimit:15.7;stroke-dasharray:none;stroke-opacity:1;paint-order:stroke fill markers"><tspan
             x="268.53461"
             y="-90.345028"
             id="tspan5128">LACLI
</tspan></text><g
           id="g4940"
           transform="matrix(0.1766683,0,0,0.1766683,76.021902,-4.6446274)"
           inkscape:export-filename="index-logo-color.svg"
           inkscape:export-xdpi="300"
           inkscape:export-ydpi="300"
           style="fill:#000000"><path
             style="fill:#000000;stroke-width:0.208805"
             d="m 106.91676,202.67119 c -0.82825,-0.91521 -0.72815,-37.35451 0.10454,-38.05517 0.97213,-0.818 3.03207,-0.82444 3.84448,-0.012 0.77268,0.77268 0.89218,37.21533 0.12474,38.03909 -0.61491,0.66002 -3.48397,0.67982 -4.07376,0.0281 z m -17.597444,-2.76887 c -0.581082,-0.61853 -0.600271,-1.90543 -0.05368,-3.60009 0.220181,-0.68264 0.556856,-1.80494 0.74817,-2.494 0.191311,-0.68906 0.433995,-1.41599 0.539296,-1.61541 0.1053,-0.19941 0.191455,-0.53298 0.191455,-0.74125 0,-0.20828 0.07762,-0.46795 0.172498,-0.57705 0.09488,-0.1091 0.291956,-0.6212 0.437961,-1.13799 0.146005,-0.51679 0.350268,-1.10278 0.453917,-1.3022 0.103651,-0.19941 0.188455,-0.54623 0.188455,-0.77069 0,-0.22447 0.09396,-0.4662 0.208805,-0.53717 0.114843,-0.071 0.208805,-0.35287 0.208805,-0.62642 0,-0.27355 0.09396,-0.55544 0.208805,-0.62641 0.114843,-0.071 0.208806,-0.35287 0.208806,-0.62642 0,-0.27355 0.09396,-0.55544 0.208805,-0.62641 0.114842,-0.071 0.208805,-0.35287 0.208805,-0.62642 0,-0.27355 0.09396,-0.55544 0.208805,-0.62642 0.114843,-0.071 0.208805,-0.35286 0.208805,-0.62641 0,-0.27355 0.09396,-0.55544 0.208805,-0.62642 0.114843,-0.071 0.208805,-0.35286 0.208805,-0.62641 0,-0.27355 0.09396,-0.55544 0.208805,-0.62642 0.114843,-0.071 0.208806,-0.35286 0.208806,-0.62641 0,-0.27355 0.09396,-0.55544 0.208805,-0.62642 0.114843,-0.071 0.208805,-0.35286 0.208805,-0.62641 0,-0.27355 0.09396,-0.55544 0.208805,-0.62642 0.114843,-0.071 0.208805,-0.3127 0.208805,-0.53717 0,-0.22446 0.08498,-0.57128 0.188833,-0.77069 0.10386,-0.19942 0.958374,-2.75862 1.898922,-5.68711 2.351175,-7.32062 2.327582,-7.25814 3.000545,-7.94746 1.42051,-1.45504 4.51673,-0.55293 4.51673,1.31599 0,0.74811 -3.03574,10.70717 -3.56403,11.69216 -0.10695,0.19942 -0.19446,0.54623 -0.19446,0.7707 0,0.22446 -0.094,0.46619 -0.2088,0.53717 -0.11485,0.071 -0.20881,0.35286 -0.20881,0.62641 0,0.27355 -0.094,0.55544 -0.2088,0.62642 -0.11485,0.071 -0.20881,0.35286 -0.20881,0.62641 0,0.27355 -0.094,0.55544 -0.2088,0.62642 -0.11485,0.071 -0.208807,0.35286 -0.208807,0.62641 0,0.27355 -0.09396,0.55544 -0.208805,0.62642 -0.114843,0.071 -0.208805,0.3127 -0.208805,0.53717 0,0.22446 -0.08425,0.57128 -0.187234,0.77069 -0.102976,0.19942 -0.495812,1.34918 -0.872964,2.55503 -0.377152,1.20585 -0.762709,2.28172 -0.856792,2.39082 -0.09408,0.1091 -0.171062,0.40893 -0.171062,0.66629 0,0.25737 -0.09396,0.52601 -0.208805,0.59698 -0.114843,0.071 -0.208805,0.35287 -0.208805,0.62642 0,0.27355 -0.09396,0.55544 -0.208805,0.62641 -0.114843,0.071 -0.208805,0.31271 -0.208805,0.53717 0,0.22447 -0.08489,0.57128 -0.188645,0.7707 -0.103755,0.19942 -0.430763,1.11427 -0.726682,2.03302 -2.208287,6.85609 -2.164256,6.78616 -4.273218,6.78616 -1.433035,0 -1.683902,-0.0582 -2.083238,-0.48327 z M 74.66656,192.31468 c -1.859406,-0.7459 -1.792041,-2.78515 0.1788,-5.4127 0.781729,-1.04221 1.73825,-2.35556 2.1256,-2.91855 0.387353,-0.563 0.821394,-1.1667 0.96454,-1.34156 0.143147,-0.17486 2.231561,-3.04283 4.640924,-6.37327 2.409361,-3.33044 4.461537,-6.14931 4.560392,-6.26415 0.09885,-0.11485 0.500875,-0.67862 0.893381,-1.25283 0.693818,-1.01502 1.851742,-2.5972 2.372079,-3.2412 0.141281,-0.17486 0.575268,-0.78561 0.964412,-1.35723 0.389146,-0.57162 0.766922,-1.08629 0.839503,-1.14371 0.07258,-0.0574 0.447271,-0.57422 0.832644,-1.14843 1.782292,-2.65565 3.64835,-3.20781 5.202653,-1.53946 1.080298,1.15956 -0.183005,4.83403 -2.288088,6.65518 -0.06638,0.0574 -0.439508,0.57422 -0.829186,1.14843 -0.68062,1.00293 -1.82848,2.57477 -2.366938,3.24119 -0.141282,0.17486 -0.57763,0.78562 -0.969664,1.35724 -0.697645,1.01723 -1.86028,2.60411 -2.371218,3.23648 -0.141282,0.17486 -0.575714,0.78561 -0.965405,1.35723 -0.38969,0.57162 -0.957937,1.36818 -1.262772,1.77013 -0.304834,0.40195 -1.571486,2.14025 -2.81478,3.86289 -3.253358,4.50769 -4.659007,6.44368 -4.851368,6.68177 -0.09279,0.11484 -0.392354,0.53767 -0.665705,0.93962 -1.104383,1.62394 -2.764686,2.31462 -4.189804,1.74293 z M 61.495775,179.31234 c -1.237794,-1.2378 -0.852331,-3.23049 0.851282,-4.40082 0.40195,-0.27612 0.777799,-0.56061 0.835221,-0.63218 0.05742,-0.0716 0.715157,-0.53886 1.461635,-1.03841 0.746479,-0.49956 1.404215,-0.96852 1.461636,-1.04214 0.05742,-0.0736 0.572092,-0.45225 1.143713,-0.84139 0.57162,-0.38915 1.182375,-0.82898 1.357233,-0.97741 0.174858,-0.14842 0.757172,-0.57553 1.294031,-0.94912 0.536859,-0.37359 2.214611,-1.5719 3.728339,-2.6629 1.513727,-1.09101 3.538834,-2.54743 4.500235,-3.23648 0.961402,-0.68906 2.979303,-2.14547 4.484222,-3.23648 1.504921,-1.09101 3.328807,-2.40648 4.053081,-2.92327 0.724274,-0.5168 1.773718,-1.26771 2.332099,-1.6687 2.35913,-1.69417 4.669325,-0.83591 4.669325,1.73469 0,1.72435 -0.0244,1.75475 -3.216956,4.00764 -1.137692,0.80284 -2.547126,1.80787 -3.132077,2.23341 -0.584953,0.42554 -1.862229,1.33866 -2.838393,2.02916 -2.824331,1.99782 -6.131688,4.38485 -6.477674,4.67516 -0.174859,0.14672 -0.785615,0.58515 -1.357233,0.9743 -0.571621,0.38914 -1.086292,0.76777 -1.143714,0.84139 -0.05742,0.0736 -0.715157,0.54258 -1.461636,1.04214 -0.746478,0.49955 -1.404214,0.96936 -1.461635,1.04402 -0.05742,0.0747 -0.70624,0.54143 -1.441821,1.03727 -0.735579,0.49584 -1.487277,1.02293 -1.670441,1.17133 -4.33888,3.51521 -6.507209,4.28205 -7.970472,2.81879 z m -7.396521,-14.97929 c -2.148925,-0.57856 -1.913602,-4.36795 0.313208,-5.04355 1.633392,-0.49556 8.40302,-2.64487 10.649062,-3.381 1.320692,-0.43285 3.387863,-1.08904 4.593713,-1.45822 1.205849,-0.36917 2.380378,-0.74428 2.610064,-0.83358 0.229685,-0.0893 1.967988,-0.65463 3.862895,-1.25629 1.894906,-0.60165 3.633209,-1.16547 3.862895,-1.25291 0.229685,-0.0874 1.122327,-0.36776 1.983649,-0.62292 0.861321,-0.25515 1.729196,-0.54823 1.928614,-0.65128 0.199417,-0.10304 0.54623,-0.18735 0.770695,-0.18735 0.224468,0 0.466193,-0.094 0.53717,-0.20881 0.07098,-0.11484 0.352864,-0.2088 0.626416,-0.2088 0.273551,0 0.555438,-0.094 0.626415,-0.20881 0.287456,-0.46511 3.337205,-0.24636 3.826498,0.27447 1.361305,1.44904 0.451537,4.15519 -1.581787,4.7051 -0.545534,0.14754 -1.155039,0.35598 -1.354456,0.46321 -0.199417,0.10723 -0.506068,0.19496 -0.68145,0.19496 -0.175382,0 -0.482033,0.0843 -0.68145,0.18723 -0.199417,0.10298 -1.34918,0.49007 -2.55503,0.86021 -1.205849,0.37013 -2.380378,0.74445 -2.610064,0.83181 -0.229685,0.0874 -1.404214,0.46673 -2.610064,0.84306 -3.751775,1.17085 -7.394128,2.33437 -7.830192,2.50128 -0.438832,0.16797 -1.867738,0.61688 -3.967298,1.24638 -0.689057,0.20659 -3.211021,1.00193 -5.604365,1.76741 -4.166542,1.33262 -5.804696,1.68352 -6.715138,1.4384 z m -2.394568,-17.55212 c -1.499875,-0.2888 -2.097351,-3.24174 -0.907248,-4.48394 0.850741,-0.88798 37.244776,-0.93417 38.130554,-0.0484 0.995554,0.99556 1.004242,3.15217 0.01643,4.0803 -0.497837,0.46777 -34.984022,0.88638 -37.239745,0.45204 z m 35.907792,-6.4405 c -0.172264,-0.0592 -2.098491,-0.67722 -4.280505,-1.37347 -2.182014,-0.69625 -4.130456,-1.3502 -4.329873,-1.45321 -0.199417,-0.10302 -0.506069,-0.1873 -0.68145,-0.1873 -0.175382,0 -0.482033,-0.0843 -0.68145,-0.18724 -0.199418,-0.10297 -1.34918,-0.48853 -2.55503,-0.85679 -1.20585,-0.36826 -2.355612,-0.75382 -2.555029,-0.85679 -0.199418,-0.10298 -0.54623,-0.18724 -0.770696,-0.18724 -0.224467,0 -0.466193,-0.094 -0.53717,-0.2088 -0.07098,-0.11484 -0.352864,-0.20881 -0.626415,-0.20881 -0.273552,0 -0.555439,-0.094 -0.626416,-0.2088 -0.07098,-0.11484 -0.312702,-0.20881 -0.53717,-0.20881 -0.224465,0 -0.571278,-0.0842 -0.770695,-0.18723 -0.199417,-0.10298 -1.34918,-0.48854 -2.55503,-0.85679 -1.205849,-0.36826 -2.355613,-0.75382 -2.555029,-0.85679 -0.199417,-0.10298 -0.506069,-0.18724 -0.68145,-0.18724 -0.175381,0 -0.482034,-0.0838 -0.68145,-0.18626 -0.199417,-0.10244 -1.865973,-0.66987 -3.703458,-1.26095 -5.356016,-1.72293 -5.324531,-1.69874 -5.324531,-4.09016 0,-2.82352 2.433326,-3.3368 6.313522,-1.33175 0.199417,0.10305 0.54623,0.18736 0.770696,0.18736 0.224467,0 0.466193,0.094 0.537169,0.2088 0.07098,0.11485 0.352864,0.20881 0.626416,0.20881 0.273552,0 0.555438,0.094 0.626415,0.2088 0.07098,0.11485 0.352864,0.20881 0.626416,0.20881 0.273551,0 0.555438,0.094 0.626415,0.2088 0.07098,0.11485 0.352864,0.20881 0.626415,0.20881 0.273552,0 0.555439,0.094 0.626416,0.2088 0.07098,0.11485 0.352864,0.20881 0.626415,0.20881 0.273552,0 0.555439,0.094 0.626416,0.2088 0.07098,0.11485 0.352863,0.20881 0.626415,0.20881 0.273552,0 0.555439,0.094 0.626415,0.2088 0.07098,0.11485 0.352864,0.20881 0.626416,0.20881 0.273552,0 0.555438,0.094 0.626415,0.2088 0.07098,0.11485 0.352864,0.20881 0.626416,0.20881 0.273551,0 0.555438,0.094 0.626415,0.20881 0.07098,0.11484 0.352864,0.2088 0.626415,0.2088 0.273552,0 0.555439,0.094 0.626416,0.20881 0.07098,0.11484 0.352864,0.2088 0.626415,0.2088 0.273552,0 0.555439,0.094 0.626416,0.20881 0.07098,0.11484 0.352864,0.2088 0.626415,0.2088 0.273552,0 0.555438,0.094 0.626415,0.20881 0.07098,0.11484 0.352864,0.2088 0.626416,0.2088 0.273551,0 0.555438,0.094 0.626415,0.20881 0.07098,0.11484 0.352864,0.2088 0.626416,0.2088 0.273551,0 0.555438,0.094 0.626415,0.20881 0.07098,0.11484 0.352864,0.2088 0.626416,0.2088 0.273551,0 0.555438,0.094 0.626415,0.20881 0.07098,0.11484 0.312702,0.2088 0.53717,0.2088 0.224465,0 0.571278,0.0848 0.770695,0.18849 0.199418,0.10367 2.758615,0.96441 5.687107,1.91275 6.614318,2.14194 6.681764,2.18521 6.681764,4.28667 0,2.14038 -1.242691,3.12142 -3.132077,2.47262 z m 2.192454,-6.63851 c -0.38161,-0.22178 -1.485853,-1.00996 -2.818869,-2.01204 -0.287107,-0.21584 -1.179749,-0.87196 -1.983649,-1.45806 -0.8039,-0.5861 -1.602579,-1.18061 -1.774844,-1.32114 -0.172264,-0.14053 -1.393774,-1.02807 -2.714466,-1.97231 -1.320693,-0.94425 -4.515411,-3.27204 -7.099375,-5.17288 -2.583963,-1.90084 -5.214908,-3.82777 -5.846544,-4.28208 -0.631635,-0.4543 -1.665221,-1.20305 -2.296856,-1.66389 -0.631636,-0.46084 -1.675366,-1.20758 -2.319402,-1.65942 -1.750571,-1.22816 -2.35191,-3.04143 -1.533492,-4.62408 0.703449,-1.36032 3.13184,-1.36916 4.607715,-0.0168 0.216484,0.19837 0.722475,0.5885 1.124425,0.86695 0.40195,0.27845 0.777799,0.56484 0.835221,0.63641 0.05742,0.0716 0.668176,0.52182 1.357233,1.00055 0.689057,0.47873 1.737135,1.22337 2.329063,1.65477 0.591929,0.43139 1.672495,1.21513 2.401259,1.74163 0.728765,0.5265 3.016348,2.19664 5.083519,3.71142 2.067171,1.51478 4.825113,3.52703 6.128763,4.47166 1.303648,0.94463 2.854026,2.07047 3.445285,2.50186 0.591256,0.4314 1.616448,1.16389 2.278199,1.62776 2.798409,1.96161 3.622444,4.1896 2.109225,5.70282 -0.609597,0.60959 -2.465392,0.75909 -3.31241,0.26684 z m 4.454714,-5.30189 c -0.291687,-0.31582 -0.845275,-1.04191 -1.230197,-1.61353 -0.384922,-0.57162 -0.819898,-1.18237 -0.966615,-1.35723 -0.316908,-0.37769 -3.001119,-4.09797 -4.447712,-6.16447 -0.562747,-0.8039 -2.101482,-2.96503 -3.419412,-4.80252 -1.317928,-1.83748 -2.894626,-4.04559 -3.503769,-4.90692 -0.609145,-0.86132 -1.164028,-1.61302 -1.233074,-1.67044 -0.06904,-0.0574 -0.534261,-0.71515 -1.033815,-1.46163 -0.499553,-0.74648 -0.969365,-1.40422 -1.044025,-1.46164 -0.07466,-0.0574 -0.546358,-0.71516 -1.048217,-1.46163 -0.501859,-0.74648 -1.019773,-1.46608 -1.150919,-1.59912 -2.551595,-2.588341 -1.935651,-5.931204 1.089182,-5.911228 1.470562,0.0097 1.002258,-0.538593 8.10878,9.493988 4.29384,6.06181 6.443702,9.05785 7.468582,10.40821 0.468824,0.61772 1.338499,1.85748 3.264205,4.6533 0.622383,0.9036 1.191523,1.68988 1.264755,1.74731 1.858264,1.45704 2.872969,5.00957 1.75127,6.13127 -0.830809,0.83081 -3.09259,0.81694 -3.869019,-0.0237 z m 7.075134,-2.29045 c -0.86325,-0.13023 -1.437179,-1.19754 -2.557838,-4.75673 -0.542396,-1.72264 -1.149053,-3.64887 -1.348121,-4.2805 -0.199071,-0.63164 -0.668162,-2.13503 -1.042428,-3.34088 -0.374265,-1.20585 -0.752012,-2.38038 -0.839441,-2.61007 -0.08743,-0.22968 -0.367722,-1.12233 -0.622878,-1.98365 -0.255158,-0.86132 -0.548233,-1.72919 -0.65128,-1.92861 -0.103045,-0.19942 -0.187357,-0.50607 -0.187357,-0.68145 0,-0.17538 -0.0848,-0.48203 -0.188455,-0.68145 -0.103648,-0.19942 -0.300731,-0.78541 -0.43796,-1.3022 -0.137229,-0.51679 -0.334312,-1.10278 -0.437961,-1.3022 -0.10365,-0.19941 -0.188454,-0.54623 -0.188454,-0.77069 0,-0.22447 -0.09396,-0.4662 -0.208806,-0.53717 -0.114842,-0.071 -0.208805,-0.35287 -0.208805,-0.62642 0,-0.27355 -0.09396,-0.55544 -0.208805,-0.62641 -0.114843,-0.071 -0.208805,-0.31271 -0.208805,-0.53717 0,-0.224469 -0.0848,-0.571282 -0.188455,-0.770699 -0.103649,-0.199417 -0.300732,-0.785406 -0.43796,-1.302199 -0.137229,-0.516792 -0.334312,-1.102782 -0.437961,-1.302199 -0.103651,-0.199416 -0.188455,-0.506069 -0.188455,-0.681449 0,-0.175381 -0.08431,-0.482034 -0.187356,-0.68145 -0.103048,-0.199417 -0.394586,-1.067293 -0.647864,-1.928614 -0.253279,-0.861322 -0.544817,-1.729198 -0.647864,-1.928615 -0.387758,-0.750392 -0.215166,-1.953927 0.363129,-2.532222 1.155103,-1.155103 4.460837,-0.595101 4.460837,0.75568 0,0.186796 0.09396,0.3977 0.208805,0.468677 0.114843,0.07098 0.208806,0.352864 0.208806,0.626415 0,0.273552 0.09396,0.555439 0.208805,0.626416 0.114843,0.07098 0.208805,0.312703 0.208805,0.537169 0,0.224466 0.08434,0.57128 0.187425,0.770696 0.103083,0.199417 1.334215,3.886162 2.735847,8.192764 1.401631,4.30661 2.63276,7.99335 2.73585,8.19277 0.10308,0.19942 0.18742,0.50607 0.18742,0.68145 0,0.17538 0.0853,0.48203 0.18966,0.68145 0.10432,0.19942 1.04394,2.99952 2.08805,6.22245 2.50992,7.74752 2.54519,8.97875 0.26799,9.35526 -0.79696,0.13176 -0.99649,0.12993 -1.97812,-0.0182 z m 6.7406,-1.32257 c -1.32466,-0.54861 -1.24307,0.73517 -1.24819,-19.64028 -0.005,-21.361608 -0.22744,-19.6042 2.47729,-19.6037 2.76267,5.1e-4 2.52939,-1.813389 2.52939,19.66753 0,18.67956 0,18.67956 -0.5204,19.16846 -0.5917,0.55587 -2.34701,0.77704 -3.23809,0.40799 z"
             id="path4930" /><path
             style="fill:#000000;stroke-width:0.208805"
             d="m 107.17873,202.48663 c -1.21574,-1.44483 -1.11274,-36.38875 0.11056,-37.50966 1.13498,-1.03997 2.42465,-1.02829 3.4237,0.031 0.69864,0.74077 1.1499,33.72019 0.49979,36.52603 -0.38973,1.68207 -2.91791,2.27907 -4.03405,0.95261 z m 2.64302,-0.77228 c 0.87111,-0.8711 0.86918,-35.29738 -0.002,-36.10478 -0.71243,-0.66027 -1.13531,-0.64603 -1.84616,0.0622 -0.84277,0.83963 -0.7488,35.16565 0.0987,36.06782 0.62892,0.66946 1.06099,0.66324 1.74943,-0.0252 z M 90.746151,199.3319 c -0.957225,-0.95723 -2.673644,-0.11641 -0.730353,-5.98993 0.436958,-1.32069 2.133539,-6.32363 3.770179,-11.31929 6.250193,-19.078 6.432193,-18.9088 8.652613,-18.9088 2.38323,0 2.77514,1.1042 1.58475,4.4651 -0.39113,1.10432 -1.28904,3.79314 -1.99535,5.97515 -1.30034,4.01718 -6.186696,18.78645 -7.737228,23.38618 -1.186692,3.52037 -1.817517,4.11868 -3.544611,2.39159 z m 1.588424,-0.51964 c 0.415766,-0.63454 2.008703,-0.83507 6.153186,-13.23448 7.100679,-21.24372 5.523889,-20.8482 4.688049,-21.39586 -1.34863,-0.88366 -2.04281,-0.0629 -3.335102,3.94328 -2.352576,7.29312 -5.690957,20.41278 -5.863443,20.74698 -0.102922,0.19942 -1.771074,2.29517 -1.771074,2.51963 0,0.22447 -0.09396,0.4662 -0.208805,0.53717 -0.114843,0.071 -0.208805,0.35287 -0.208805,0.62642 0,0.27355 -0.09396,0.55544 -0.208805,0.62642 -0.114843,0.071 -0.208805,0.35286 -0.208805,0.62641 0,0.27355 -0.09396,0.55544 -0.208806,0.62642 -0.114842,0.071 -0.208805,0.30784 -0.208805,0.52638 0,0.21853 -0.222298,1.09735 -0.493997,1.95294 -0.672062,2.11633 0.77351,3.5797 1.875212,1.89829 z m -18.058644,-7.23387 c -1.20178,-1.22921 -1.146108,-1.72521 0.434958,-3.8753 2.279432,-3.0998 4.674853,-6.39381 5.280202,-7.26097 0.584729,-0.83762 6.478359,-8.9504 9.802985,-13.49414 0.80987,-1.10685 1.989285,-2.75119 2.62092,-3.65409 2.420281,-3.45972 3.453625,-4.12789 4.961818,-3.20834 1.626011,0.99139 1.625477,2.17753 -0.0019,4.35221 -0.603328,0.8062 -1.472809,2.00094 -1.932181,2.65498 -0.459371,0.65404 -1.21107,1.69255 -1.670441,2.30781 -0.459371,0.61526 -1.124683,1.51963 -1.478468,2.00971 -0.656439,0.90932 -5.212857,7.19808 -8.890688,12.27092 -1.124032,1.55038 -2.398539,3.31367 -2.832239,3.91843 -1.673818,2.33397 -3.201683,4.21663 -3.59115,4.42507 -0.849948,0.45488 -2.009887,0.26342 -2.703753,-0.44629 z m 3.051735,-1.37205 c 0.45141,-0.5455 1.492502,-1.93144 2.313536,-3.07987 0.821035,-1.14843 3.70807,-5.14183 6.415634,-8.87422 2.707566,-3.73239 5.692112,-7.84989 6.632328,-9.14999 0.940214,-1.3001 2.062441,-2.85048 2.493835,-3.44528 2.486501,-3.42837 2.519488,-3.48871 2.216652,-4.05457 -0.755263,-1.41122 -1.697438,-1.1053 -3.209811,1.04221 -0.574214,0.81536 -1.748743,2.44093 -2.610064,3.61237 -0.861321,1.17144 -2.364718,3.23626 -3.340882,4.58849 -0.976164,1.35222 -2.437416,3.36051 -3.247225,4.46287 -0.809809,1.10235 -1.768573,2.42711 -2.130585,2.9439 -0.362012,0.51679 -2.302294,3.19472 -4.311738,5.95095 -4.423679,6.06767 -4.253077,5.77778 -3.803787,6.46349 0.601539,0.91806 1.586813,0.74241 2.582107,-0.46035 z M 62.225992,179.4749 c -1.964969,-0.95347 -1.486541,-3.02076 1.129678,-4.88136 0.880798,-0.6264 3.480697,-2.50299 5.777554,-4.17019 3.547002,-2.57465 6.752885,-4.87552 11.057338,-7.93589 0.484585,-0.34453 2.846056,-2.04392 5.247716,-3.77644 5.958516,-4.29836 6.079942,-4.34385 7.474435,-2.80032 1.553428,1.71946 1.086555,2.54098 -3.18307,5.60095 -4.143744,2.96975 -15.098192,10.86877 -19.722298,14.22133 -5.741454,4.16266 -6.330494,4.44592 -7.781353,3.74192 z m 5.680046,-3.54696 c 2.282752,-1.6229 4.620269,-3.29798 5.194483,-3.72238 1.465324,-1.08305 2.033478,-1.49241 12.319503,-8.87635 7.854529,-5.63847 7.812123,-5.59621 6.74977,-6.72703 -0.856241,-0.91143 -0.227977,-1.3013 -14.650112,9.09117 -0.899903,0.64846 -2.231501,1.60185 -2.959105,2.11864 -1.220773,0.86707 -5.443597,3.90873 -7.827034,5.63774 -0.554089,0.40195 -1.764241,1.27078 -2.689229,1.93073 -2.261306,1.61338 -2.516771,2.10165 -1.562364,2.98616 0.843321,0.78157 0.982617,0.71894 5.424088,-2.43868 z M 54.15936,164.03033 c -1.98673,-0.75484 -1.78329,-3.68696 0.307942,-4.43829 0.914491,-0.32856 7.73793,-2.53445 12.682273,-4.09996 1.550378,-0.49089 3.899436,-1.24249 5.220128,-1.67023 1.320693,-0.42774 4.515411,-1.45762 7.099375,-2.28862 2.583963,-0.83099 5.507947,-1.78351 6.497742,-2.1167 2.698349,-0.90834 3.523581,-0.81093 4.341462,0.51243 1.235368,1.99886 0.271847,3.23674 -3.426622,4.40234 -5.416474,1.70705 -7.156063,2.26056 -8.56101,2.72398 -2.468524,0.81425 -6.541638,2.1152 -9.500634,3.03449 -2.673825,0.8307 -6.471747,2.04367 -10.471956,3.34452 -2.171988,0.70631 -3.42803,0.88504 -4.1887,0.59604 z m 5.058447,-1.96839 c 2.008194,-0.63598 5.013716,-1.58522 6.678937,-2.10942 1.665221,-0.5242 3.826354,-1.21697 4.802518,-1.53949 0.976164,-0.32253 3.325222,-1.07445 5.220129,-1.67094 1.894906,-0.59649 4.243964,-1.34272 5.220128,-1.6583 0.976164,-0.31557 2.761448,-0.87922 3.967298,-1.25254 1.205849,-0.37332 2.355612,-0.76302 2.555029,-0.86599 0.199417,-0.10298 0.492122,-0.18724 0.650457,-0.18724 1.075303,0 1.728082,-1.50992 1.06318,-2.4592 -0.482142,-0.68835 -2.668495,-0.25142 -7.087536,1.4164 -0.229685,0.0867 -1.404214,0.46045 -2.610064,0.83059 -1.20585,0.37013 -2.355612,0.75722 -2.555029,0.8602 -0.199418,0.10298 -0.506069,0.18723 -0.68145,0.18723 -0.175382,0 -0.482033,0.0843 -0.681451,0.18724 -0.199417,0.10299 -1.631066,0.58707 -3.181444,1.07576 -1.550379,0.48868 -3.899436,1.23926 -5.220129,1.66796 -2.407214,0.78138 -9.630638,3.07749 -11.588685,3.6837 -2.017664,0.62466 -2.541917,1.47718 -1.557904,2.5334 0.59831,0.64221 0.905295,0.59932 5.006016,-0.69936 z m -7.788069,-15.75882 c -1.72885,-1.35991 -1.372468,-3.81485 0.634723,-4.37228 1.304089,-0.36216 34.959895,-0.29634 35.836891,0.0701 2.512646,1.04985 1.645986,5.24987 -0.93707,4.54125 -1.031585,-0.283 -33.18061,-0.23011 -34.329743,0.0565 -0.48891,0.12193 -0.757977,0.0559 -1.204801,-0.29554 z m 35.655136,-0.61797 c 1.429743,-0.33148 1.865091,-1.66916 0.812652,-2.49701 -0.659367,-0.51866 -34.681399,-0.69989 -35.639044,-0.18985 -1.481886,0.78926 -1.116001,2.49239 0.587941,2.73676 1.282814,0.18397 33.431797,0.13712 34.238451,-0.0499 z m -1.873655,-6.36209 c -1.492957,-0.50391 -4.593713,-1.52289 -6.890569,-2.2644 -24.007351,-7.75047 -23.486053,-7.56867 -24.378,-8.50185 -1.392621,-1.45702 -0.658211,-4.17628 1.127916,-4.17628 0.551904,0 33.435655,10.87025 34.413606,11.37597 1.322027,0.68365 1.673561,2.56261 0.686169,3.6676 -0.895601,1.00226 -1.741391,0.98503 -4.959122,-0.10104 z m 4.10746,-0.46294 c 0.445866,-0.4035 0.498902,-1.29378 0.108852,-1.8272 -0.248179,-0.33941 -33.349997,-11.57961 -34.163407,-11.60068 -0.526995,-0.0136 -1.060711,0.65978 -1.053827,1.32971 0.01353,1.31654 0.377752,1.51185 6.466319,3.4675 2.583963,0.82997 4.88604,1.58057 5.115726,1.668 0.229685,0.0874 1.967988,0.6497 3.862895,1.24948 1.894906,0.59978 3.608443,1.17478 3.80786,1.27778 0.199417,0.103 0.506068,0.18727 0.68145,0.18727 0.175382,0 0.482033,0.0854 0.68145,0.18974 0.199417,0.10436 2.194841,0.77439 4.434276,1.48896 2.239435,0.71457 5.105285,1.65244 6.368556,2.08415 2.626174,0.89749 3.157203,0.96733 3.68985,0.48529 z m -0.492247,-6.28399 c -1.773773,-1.2654 -7.772627,-5.64188 -14.995093,-10.93972 -1.435535,-1.05299 -3.69063,-2.69132 -5.011323,-3.64072 -8.195245,-5.89128 -8.913165,-6.84389 -6.615099,-8.77759 1.188876,-1.00037 1.63207,-0.83558 5.628168,2.0927 1.581779,1.1591 3.320082,2.42194 3.862894,2.80631 0.882502,0.62491 8.182436,5.94615 11.427189,8.32977 4.680127,3.43807 6.83144,4.99947 7.85944,5.70429 2.800703,1.92025 3.375546,3.47363 1.849999,4.99917 -1.190463,1.19047 -1.618556,1.12911 -4.006175,-0.57421 z m 3.3141,-0.0886 c 1.018433,-0.95677 0.569552,-1.75339 -2.074594,-3.68172 -0.660346,-0.48158 -1.693931,-1.23677 -2.296856,-1.67819 -0.602925,-0.44143 -2.120318,-1.54549 -3.371986,-2.45346 -1.251667,-0.90798 -2.661102,-1.93655 -3.132077,-2.28572 -0.470974,-0.34916 -3.299338,-2.40627 -6.285251,-4.57135 -5.792084,-4.19982 -7.296412,-5.29758 -8.456608,-6.17106 -2.602709,-1.9595 -3.20632,-2.18976 -3.856634,-1.47117 -0.98203,1.08513 -0.501311,1.71191 3.543426,4.62002 1.263271,0.90827 3.706291,2.68519 5.428933,3.9487 1.722643,1.26352 4.776418,3.4908 6.786167,4.94953 3.722219,2.70169 6.144684,4.4742 9.500634,6.95159 3.604657,2.661 3.426747,2.58321 4.214846,1.84283 z m 2.76054,-4.06923 C 94.508786,128.11254 93.851908,127.38433 93.44134,126.80006 93.030775,126.2158 88.450566,119.80082 83.263099,112.54455 72.927842,98.087519 73.186328,98.52979 74.268241,97.15436 c 1.260557,-1.602538 2.642907,-1.373956 4.163078,0.688396 0.558148,0.757215 1.427089,1.940528 1.930979,2.629584 1.003361,1.37207 5.912625,8.26247 6.41496,9.00373 0.172264,0.25419 1.346793,1.89583 2.610064,3.64807 1.263271,1.75225 2.672706,3.72252 3.132077,4.37839 0.459371,0.65586 1.439596,2.0254 2.17828,3.04341 4.047063,5.57746 4.218584,5.90246 3.672435,6.9586 -0.771324,1.49157 -2.233576,1.87674 -3.469042,0.91376 z m 2.301287,-1.03826 c 0.585143,-0.74388 0.574774,-0.78687 -0.568436,-2.35606 -0.550661,-0.75585 -5.118701,-7.15295 -10.1512,-14.21579 C 75.900895,95.957181 76.438127,96.600889 75.38292,97.508539 c -0.966037,0.830951 -0.809182,1.159262 3.262553,6.828901 2.102271,2.92728 5.191282,7.23374 6.864469,9.56992 1.673189,2.33617 3.867403,5.38995 4.876034,6.78616 1.008629,1.39622 2.22375,3.10235 2.700266,3.79141 2.500306,3.61553 3.175745,4.0906 4.116117,2.89511 z m 3.900381,-1.76642 c -0.79361,-0.62425 -1.172588,-1.48506 -2.519339,-5.7224 -0.65701,-2.06717 -1.455642,-4.55717 -1.774742,-5.53334 -0.319098,-0.97616 -0.884496,-2.76145 -1.256439,-3.9673 -0.371942,-1.20585 -0.935678,-2.99113 -1.252745,-3.96729 -0.317068,-0.97617 -1.067182,-3.32522 -1.666921,-5.22013 -1.888345,-5.966337 -2.341192,-7.379456 -2.759704,-8.611718 -0.883559,-2.601549 -0.207095,-4.125395 1.831344,-4.125395 1.324268,0 2.103683,0.982179 2.984561,3.76099 0.381814,1.204476 0.958267,2.988635 1.281002,3.964799 9.532383,28.832114 9.333713,28.116054 8.116243,29.253344 -0.8182,0.76432 -2.13146,0.83846 -2.98326,0.16844 z m 2.37893,-1.02429 c 0.62548,-0.62548 1.2621,1.57089 -5.658819,-19.52328 -1.733256,-5.282766 -3.236254,-9.768191 -3.339993,-9.967608 -0.103738,-0.199416 -0.188616,-0.506069 -0.188616,-0.681449 0,-0.175381 -0.08313,-0.482034 -0.184742,-0.68145 -0.101611,-0.199417 -0.393078,-1.020312 -0.647705,-1.824212 -0.709418,-2.239733 -1.715282,-2.985606 -2.699297,-2.001591 -0.340816,0.340815 -0.369032,0.517611 -0.191619,1.200629 0.114428,0.440529 0.258129,1.060509 0.319341,1.377732 0.06121,0.317223 0.194418,0.628146 0.296021,0.69094 0.1016,0.06279 0.18473,0.297824 0.18473,0.52229 0,0.224466 0.08431,0.571279 0.187356,0.770696 0.103048,0.199417 0.396122,1.067293 0.65128,1.928614 0.255156,0.861321 0.535452,1.753963 0.622878,1.983649 0.08743,0.229686 0.463331,1.404214 0.835342,2.61006 0.372011,1.20585 0.747913,2.38038 0.835342,2.61007 0.08743,0.22968 0.369259,1.12233 0.626294,1.98365 0.257035,0.86132 0.538872,1.75396 0.626301,1.98365 0.08743,0.22968 0.5599,1.6861 1.049934,3.23647 0.490033,1.55038 1.146627,3.61755 1.459097,4.59372 0.312471,0.97616 0.921345,2.90239 1.353055,4.2805 1.29379,4.13005 1.38295,4.36617 1.8332,4.85472 0.54059,0.58659 1.47228,0.61054 2.03062,0.0522 z m 4.51577,-0.2253 c -1.23028,-0.96773 -1.17489,-0.0608 -1.17489,-19.23914 0,-17.605927 0,-17.605927 0.52431,-18.377524 0.99994,-1.471532 2.78539,-1.524369 3.96923,-0.117461 0.87256,1.036982 0.78758,36.267075 -0.09,37.292595 -0.78223,0.91414 -2.35452,1.12916 -3.22869,0.44153 z m 2.36666,-1.0669 c 0.69339,-0.74426 0.66628,-35.487756 -0.0283,-36.22706 -0.59563,-0.634021 -1.24012,-0.611444 -1.91878,0.06722 -0.77849,0.778492 -0.89046,35.08426 -0.11772,36.06665 0.54454,0.69226 1.46782,0.73394 2.06476,0.0932 z"
             id="path4932"
             sodipodi:nodetypes="csssccsscssssssssssssssssscssssssscssssscssssssccsssssssssssssssssscssssscsssssssscsssssssssscssssssssssssscssssscscssccssssssscsssssscsscssscscsssssssccsssssssscssssssssssssssscsssssssssssssssssssscssssssssssssssssssssssssscscscccccsscc" /><path
             style="fill:#000000;stroke-width:0.208805"
             d="m 107.60557,202.87453 c -1.01104,-0.58888 -0.99182,-0.21853 -0.99182,-19.11786 0,-17.69368 0,-17.69368 0.46981,-18.38819 0.89588,-1.32435 2.9001,-1.31818 3.77141,0.0116 0.73067,1.11514 0.40884,36.57392 -0.33777,37.21608 -0.6335,0.54486 -2.19737,0.69437 -2.91163,0.27835 z m 2.37526,-1.0795 c 0.67141,-0.76523 0.62438,-35.98347 -0.0488,-36.5409 -0.61097,-0.50593 -1.51335,-0.46006 -2.05401,0.1044 -0.75379,0.78699 -0.60818,35.66773 0.15254,36.5409 0.45108,0.51776 1.45137,0.46421 1.95027,-0.1044 z m -19.210761,-2.56062 c -1.188901,-0.16269 0.758765,-2.27363 0.946911,-3.14706 0.116125,-0.53909 -1.693135,-1.03872 -1.39196,-1.86151 0.08407,-0.22968 0.266562,-0.79346 0.405529,-1.25283 0.138964,-0.45937 0.422375,-1.30503 0.6298,-1.87925 0.207425,-0.57421 0.868134,-2.5944 1.468246,-4.48931 0.60011,-1.8949 1.175381,-3.60844 1.278378,-3.80786 0.103,-0.19941 0.187269,-0.54623 0.187269,-0.77069 0,-0.22447 0.09396,-0.46619 0.208806,-0.53717 0.114842,-0.071 0.208805,-0.35287 0.208805,-0.62642 0,-0.27355 0.09396,-0.55544 0.208805,-0.62641 0.114843,-0.071 0.208805,-0.35287 0.208805,-0.62642 0,-0.27355 0.09396,-0.55544 0.208805,-0.62641 0.114843,-0.071 0.208805,-0.31271 0.208805,-0.53717 0,-0.22447 0.08474,-0.57128 0.188317,-0.7707 0.103576,-0.19942 1.109326,-3.17247 2.234998,-6.60678 2.125902,-6.4859 2.576082,-7.48832 3.417052,-7.60875 0.49456,-0.0708 0.49263,-0.0617 -0.14005,0.65886 -0.37984,0.43261 -0.85719,1.39886 -1.17018,2.36867 -0.29076,0.9009 -1.160032,3.61121 -1.93172,6.02291 -1.76171,5.50574 -4.647745,14.20526 -4.987465,15.03397 -0.611695,1.49215 -2.41347,7.20615 -2.41347,7.65388 0,0.27023 0.835982,1.83079 0.870668,2.65511 0.0798,1.89657 -1.379465,0.41515 0.192679,0.41515 0.98911,0 1.389612,1.76315 2.192529,-0.75 0.257999,-0.80755 -0.0868,-2.44656 0.03231,-2.6726 0.334418,-0.63463 0.737022,-1.62997 0.79968,-1.97701 0.0596,-0.33014 1.656199,-5.02738 1.951754,-5.74214 0.09498,-0.22969 0.657815,-1.92101 1.250757,-3.7585 0.592942,-1.83748 1.157672,-3.5288 1.254957,-3.75849 0.09728,-0.22968 0.297889,-0.84044 0.445792,-1.35723 0.147901,-0.51679 0.346539,-1.02889 0.441409,-1.13799 0.0949,-0.1091 0.1725,-0.36877 0.1725,-0.57705 0,-0.20827 0.0856,-0.54184 0.19028,-0.74125 0.10465,-0.19942 0.77226,-2.19484 1.48356,-4.43428 0.71131,-2.23943 1.43564,-4.51945 1.60964,-5.0667 0.32948,-1.03628 0.56838,-1.34436 0.77866,-1.00412 0.068,0.11007 -0.66043,2.57812 -1.61879,5.48454 -0.95837,2.90642 -2.988259,9.08987 -4.51086,13.741 -1.522601,4.65114 -2.854821,8.61977 -2.960491,8.81919 -0.10567,0.19941 -0.192128,0.54623 -0.192128,0.77069 0,0.22447 -0.08313,0.4595 -0.18473,0.52229 -0.101602,0.0628 -0.235672,0.37372 -0.297931,0.69094 -0.788641,4.01821 -3.194014,4.11831 -3.281724,3.75157 -0.235812,-0.98602 -0.225557,0.21389 -0.595007,0.16333 z m -16.471259,-7.8804 c -0.961218,-0.99172 -0.89664,-1.62796 0.333715,-3.28792 1.367076,-1.84442 5.2605,-7.19222 5.776176,-7.93385 0.373264,-0.53682 3.205038,-4.43566 5.687704,-7.83094 0.503846,-0.68905 1.630154,-2.23943 2.502909,-3.44528 0.872753,-1.20585 1.932348,-2.66227 2.354654,-3.23648 0.422308,-0.57421 1.229177,-1.6956 1.793047,-2.49196 1.45728,-2.05816 2.68086,-3.3485 2.992568,-3.15585 0.183179,0.11321 0.05668,0.35077 -0.437186,0.82101 -0.382219,0.36394 -1.493626,1.77507 -2.46979,3.13585 -0.976164,1.36078 -1.939902,2.67377 -2.141642,2.91777 -0.201739,0.24399 -0.650482,0.86645 -0.997207,1.38324 -0.346725,0.5168 -1.049438,1.5034 -1.561583,2.19246 -0.512144,0.68905 -1.260807,1.72264 -1.663692,2.29685 -0.750049,1.06901 -1.781133,2.4473 -2.28622,3.05607 -0.155881,0.18788 -0.786815,1.06961 -1.402076,1.9594 -1.224668,1.77112 -1.372387,1.97761 -3.206706,4.48245 -0.689057,0.94093 -1.675662,2.30123 -2.192454,3.02287 -0.516793,0.72164 -1.385944,1.92803 -1.931448,2.68087 -1.341803,1.85178 -1.423228,3.07513 -0.229074,3.44162 1.141824,0.35044 2.022639,-0.21725 3.332309,-2.14767 0.389568,-0.57422 1.127276,-1.6078 1.63935,-2.29686 0.512076,-0.68906 1.099148,-1.48752 1.304608,-1.77437 0.642316,-0.89674 2.717031,-3.76507 4.504246,-6.22719 3.881525,-5.3473 4.773599,-6.58345 5.68316,-7.87517 0.710692,-1.0093 1.973687,-2.7464 3.334464,-4.58617 2.957171,-3.99809 3.28216,-4.97265 1.910669,-5.72966 -0.700222,-0.38649 -0.809068,-0.70722 -0.274919,-0.81009 1.735628,-0.33425 2.18686,2.27269 0.734397,4.24289 -1.795073,2.43494 -2.562361,3.48929 -3.528533,4.84869 -0.507785,0.71445 -1.695331,2.35879 -2.638988,3.65409 -0.943657,1.2953 -2.160732,2.96584 -2.704611,3.71232 -0.543881,0.74648 -1.471933,2.01497 -2.062339,2.81887 -0.997154,1.35773 -4.253641,5.85689 -6.088359,8.41168 -3.409638,4.74781 -4.466981,5.40142 -6.067149,3.75046 z M 62.631052,179.49042 c -0.490806,-0.14536 -0.767138,-0.4314 -1.099192,-1.13781 -0.776409,-1.65174 -0.611316,-1.86345 4.068388,-5.21702 1.368923,-0.981 3.663479,-2.62547 5.099014,-3.65439 1.435536,-1.02891 3.408744,-2.45033 4.384908,-3.15871 1.771933,-1.28585 2.786062,-2.00708 4.854719,-3.45262 0.602925,-0.42131 2.975474,-2.13689 5.27233,-3.81241 2.296857,-1.67552 4.431194,-3.21005 4.742971,-3.41008 2.201905,-1.4127 4.712465,1.44528 2.895388,3.29606 -0.698562,0.71152 -1.140811,1.04871 -3.485141,2.65716 -1.433283,0.98339 -4.817655,3.41553 -9.373346,6.73605 -0.574214,0.41852 -2.240035,1.62273 -3.701821,2.67601 -1.461788,1.05328 -3.434579,2.47883 -4.383981,3.16789 -0.949401,0.68906 -1.961507,1.41577 -2.249125,1.61491 -0.287617,0.19914 -0.813951,0.57499 -1.169631,0.83522 -3.666964,2.68287 -4.718547,3.19645 -5.855481,2.85974 z m 2.534874,-1.18524 c 2.465828,-1.8232 7.07996,-5.09472 7.489375,-5.31013 0.244872,-0.12884 0.504095,-0.32442 0.576051,-0.43462 0.125407,-0.19206 1.830092,-1.4497 4.045272,-2.98443 0.574214,-0.39783 1.525967,-1.07493 2.115008,-1.50467 1.629256,-1.18865 6.529727,-4.70755 7.049201,-5.06185 4.984715,-3.39979 6.182968,-4.47162 6.182968,-5.53064 0,-2.07559 -1.503917,-1.95349 -4.767687,0.38708 -1.339848,0.96085 -2.822502,2.01793 -3.294786,2.34906 -0.472282,0.33112 -2.147419,1.54166 -3.722524,2.69009 -3.840381,2.80007 -5.472004,3.95487 -6.561327,4.64386 -0.501104,0.31695 -1.252802,0.86607 -1.670442,1.22026 -0.417639,0.3542 -2.779534,2.08235 -5.248655,3.84035 -5.422391,3.86071 -5.637738,4.04916 -5.637738,4.93354 0,1.57745 1.803107,1.9763 3.445284,0.7621 z M 54.203657,163.83041 c -1.906536,-0.77805 -1.499776,-3.77043 0.577719,-4.25007 0.579462,-0.13378 6.905013,-2.12785 7.670084,-2.41791 0.229685,-0.0871 1.404214,-0.46271 2.610064,-0.83472 1.205849,-0.37201 2.380378,-0.74839 2.610064,-0.8364 0.229686,-0.088 0.840441,-0.27386 1.357233,-0.41298 0.516793,-0.13913 1.102782,-0.33776 1.302199,-0.44141 0.199417,-0.10365 0.54623,-0.18845 0.770695,-0.18845 0.224468,0 0.466193,-0.094 0.53717,-0.20881 0.07098,-0.11484 0.312703,-0.20881 0.53717,-0.20881 0.224466,0 0.571279,-0.0843 0.770696,-0.18735 0.199417,-0.10305 1.067293,-0.39612 1.928614,-0.65128 0.861321,-0.25516 1.753963,-0.54049 1.983649,-0.63406 0.229685,-0.0936 0.793459,-0.28334 1.252831,-0.42168 0.459371,-0.13835 1.023145,-0.32125 1.25283,-0.40644 0.229686,-0.0852 1.686102,-0.55322 3.23648,-1.04007 1.550378,-0.48684 3.006794,-0.95488 3.23648,-1.04007 3.132536,-1.16187 4.698115,-0.602 4.698115,1.6801 0,1.00223 -1.097843,2.28324 -1.956755,2.28324 -0.255961,0 -0.554649,0.0791 -0.663749,0.17572 -0.109101,0.0966 -0.903083,0.38443 -1.764404,0.63953 -0.861321,0.2551 -3.586228,1.11194 -6.055349,1.90408 -4.8203,1.54645 -8.144187,2.60121 -12.945918,4.1081 -1.665221,0.52259 -3.215599,1.02128 -3.445285,1.1082 -0.229685,0.0869 -1.122327,0.36835 -1.983648,0.62538 -0.861322,0.25704 -1.753964,0.53779 -1.983649,0.62389 -2.592728,0.9719 -4.712316,1.36732 -5.533336,1.03227 z m 4.280505,-1.26911 c 1.378114,-0.44279 3.163398,-1.00671 3.967298,-1.25314 2.423002,-0.74277 7.867529,-2.48925 8.97862,-2.88014 0.344529,-0.1212 2.317737,-0.74594 4.384908,-1.3883 2.067171,-0.64236 4.369248,-1.35806 5.115726,-1.59045 0.746478,-0.23238 1.520391,-0.50565 1.719809,-0.60726 0.199417,-0.10161 0.579964,-0.18474 0.845661,-0.18474 0.265696,0 0.572349,-0.0824 0.68145,-0.18306 0.208469,-0.19239 2.688268,-1.09441 3.226039,-1.17346 0.379512,-0.0558 1.448371,-0.45505 1.879246,-0.70196 0.222651,-0.12759 0.313208,-0.53514 0.313208,-1.40956 0,-2.00326 -0.280684,-1.97176 -9.724132,1.09124 -1.213933,0.39374 -2.388462,0.75766 -2.610065,0.80871 -0.221604,0.0511 -1.483483,0.4587 -2.804175,0.90588 -1.320693,0.44718 -3.951637,1.30465 -5.846544,1.9055 -1.894907,0.60084 -3.68019,1.17007 -3.967298,1.26496 -0.287107,0.0949 -2.213334,0.70167 -4.280505,1.34843 -6.860405,2.14641 -6.462746,1.96948 -6.53969,2.90958 -0.196966,2.40651 0.319394,2.53257 4.660444,1.13777 z m -7.39738,-16.82582 c -1.087216,-1.31898 -0.671542,-3.00517 0.885813,-3.59333 1.004272,-0.37927 35.295873,-0.30263 36.036855,0.0805 1.873611,0.96888 1.437327,4.29118 -0.563517,4.29118 -0.707363,0 -0.552517,-0.59047 0.206419,-0.78713 0.973092,-0.25215 1.294625,-2.08825 0.483563,-2.76137 -0.35438,-0.29411 -35.874403,-0.30277 -36.423539,-0.009 -1.029369,0.5509 -0.564921,2.51047 0.664236,2.8025 0.785473,0.18662 0.757621,0.75488 -0.037,0.75488 -0.451698,0 -0.778663,-0.20314 -1.25283,-0.77839 z m 35.899281,-6.00087 c -0.40195,-0.16173 -3.267801,-1.10768 -6.368557,-2.10212 -8.000162,-2.56572 -8.882911,-2.85121 -13.781139,-4.45696 -2.411699,-0.79061 -5.371512,-1.74555 -6.577361,-2.12208 -1.20585,-0.37653 -2.281718,-0.76348 -2.390819,-0.85989 -0.109101,-0.0964 -0.368772,-0.17529 -0.577048,-0.17529 -0.208275,0 -0.541841,-0.0883 -0.741258,-0.1962 -0.199416,-0.1079 -0.623341,-0.25123 -0.942054,-0.3185 -2.627309,-0.55457 -3.07216,-4.91424 -0.501437,-4.91424 0.519538,0 14.182799,4.3879 15.015825,4.82227 0.199417,0.10398 0.506068,0.18906 0.68145,0.18906 0.175382,0 0.482033,0.0843 0.68145,0.18742 0.199417,0.10308 3.886162,1.34148 8.192768,2.75199 4.306606,1.4105 7.919457,2.64164 8.028557,2.73584 0.109101,0.0942 0.370803,0.17129 0.58156,0.17129 0.210758,0 0.638286,0.16439 0.950064,0.36532 2.773903,1.78767 0.835122,5.16425 -2.252001,3.92209 z m 2.250395,-0.43636 c 0.383809,-0.26883 0.464072,-0.52346 0.464072,-1.47229 0,-1.38553 0.481884,-1.13078 -6.349508,-3.3567 -9.722875,-3.16807 -21.019197,-6.9605 -21.943588,-7.36696 -0.229686,-0.10099 -0.699497,-0.24516 -1.044026,-0.32037 -0.344528,-0.0752 -0.908302,-0.25956 -1.252831,-0.40967 -0.700279,-0.3051 -2.562637,-0.85068 -3.610441,-1.05769 -1.010787,-0.1997 -1.296479,0.14663 -1.296479,1.57162 0,1.35413 0.114968,1.50691 1.466755,1.94916 5.155997,1.68682 11.001618,3.57241 13.045202,4.20792 1.378113,0.42857 2.693586,0.85668 2.923271,0.95135 0.229686,0.0947 0.79346,0.28669 1.252831,0.42669 1.681387,0.51242 2.719136,0.89021 2.912832,1.0604 0.109101,0.0959 0.368773,0.17429 0.577047,0.17429 0.208275,0 0.541841,0.0858 0.741259,0.19076 0.199417,0.10491 1.912953,0.67935 3.80786,1.27653 1.894906,0.59717 4.384908,1.4 5.533336,1.78406 2.480699,0.82959 2.20217,0.79032 2.772408,0.3909 z m 0.150864,-6.45283 c -2.985195,-2.20871 -5.627823,-4.14808 -8.423646,-6.18194 -1.647091,-1.1982 -3.338412,-2.43456 -3.758493,-2.74747 -0.885081,-0.65927 -1.919186,-1.40809 -2.956233,-2.14068 -12.612126,-8.90945 -13.891503,-10.1896 -12.1966,-12.20387 1.155802,-1.3736 1.472264,-1.22737 8.54251,3.9473 3.445284,2.52158 6.700943,4.89298 7.234799,5.26977 0.533854,0.37679 1.931366,1.38979 3.105582,2.25112 3.192645,2.34189 6.297738,4.59874 8.897815,6.46712 3.849803,2.76642 4.45136,3.90345 2.922694,5.5243 -0.996222,1.0563 -1.745678,1.015 -3.368428,-0.18565 z m 2.985913,-0.15445 c 1.208942,-1.20894 0.442521,-2.29173 -3.813153,-5.38717 -1.815715,-1.32069 -4.264526,-3.10598 -5.4418,-3.9673 -1.177275,-0.86132 -3.240297,-2.36472 -4.584494,-3.34088 -1.344196,-0.97616 -3.277736,-2.3856 -4.296753,-3.13208 -1.019015,-0.74648 -2.381387,-1.73308 -3.027491,-2.19245 -0.646103,-0.45937 -2.364195,-1.71211 -3.817981,-2.78388 -4.118383,-3.03615 -5.148909,-3.1896 -5.148909,-0.76668 0,1.17126 0.376722,1.52957 5.324531,5.06426 0.746479,0.53328 2.390819,1.73289 3.65409,2.6658 1.263271,0.93292 2.935115,2.15946 3.715209,2.72565 0.780092,0.56619 2.062435,1.49926 2.849648,2.07347 1.839821,1.34201 4.595172,3.34733 5.881499,4.2805 2.165583,1.57103 5.046772,3.6857 5.884342,4.31885 0.940346,0.71084 2.334028,0.92915 2.821262,0.44191 z m 2.393208,-4.60521 c -0.711938,-0.71334 -1.006836,-1.10117 -3.770012,-4.95806 -0.94618,-1.3207 -1.990605,-2.77711 -2.320945,-3.23648 -1.900419,-2.64272 -4.38359,-6.11648 -4.925903,-6.89095 -1.105936,-1.57937 -2.789941,-3.94375 -3.387143,-4.75561 -0.319085,-0.43379 -0.955709,-1.32643 -1.414719,-1.98365 -1.198947,-1.71669 -2.770888,-3.90433 -3.915752,-5.44947 -1.515353,-2.045159 -1.384698,-3.463629 0.403883,-4.384806 1.347445,-0.693977 1.978162,-0.02834 7.478511,7.892606 0.459371,0.66154 2.573523,3.61635 4.698115,6.56626 2.124592,2.94992 4.238744,5.91213 4.698116,6.5827 0.767127,1.11983 2.672394,3.79646 5.167927,7.26022 1.96225,2.72358 -0.411649,5.66219 -2.712078,3.35724 z m 2.618115,-0.40611 c 0.137812,-0.13781 0.250567,-0.60291 0.250567,-1.03356 0,-0.8086 -0.03903,-0.8757 -2.410735,-4.14481 -0.624881,-0.86132 -1.509755,-2.12981 -1.966387,-2.81887 -0.456632,-0.68905 -1.011287,-1.44075 -1.232566,-1.67044 -0.221279,-0.22968 -0.742325,-0.9344 -1.157879,-1.56604 -0.415553,-0.63163 -1.174447,-1.7122 -1.686431,-2.40126 -0.511982,-0.68905 -1.254138,-1.72264 -1.649235,-2.29685 -0.395095,-0.57422 -1.672811,-2.3595 -2.839368,-3.9673 -1.166556,-1.6078 -2.542328,-3.53403 -3.057266,-4.2805 -4.811033,-6.974285 -5.614148,-7.66191 -6.767523,-5.794347 -0.572523,0.927039 -0.435066,1.318779 1.323977,3.773227 0.826388,1.15309 1.784409,2.49383 2.128938,2.97944 0.344528,0.48561 1.660001,2.31899 2.923272,4.07419 1.263271,1.75521 2.458325,3.43159 2.655677,3.7253 0.197352,0.29371 0.875752,1.23873 1.507557,2.10005 0.631804,0.86132 1.576865,2.1768 2.100137,2.92327 0.523269,0.74648 1.442229,2.03861 2.04213,2.8714 0.599902,0.83279 1.701485,2.36809 2.447963,3.41177 1.692092,2.36579 2.952049,4.00581 3.231351,4.20609 0.344608,0.24711 1.882704,0.18236 2.155821,-0.0908 z m 3.797382,-2.10513 c -0.76981,-0.61951 -1.06582,-1.36591 -3.123411,-7.87576 -0.490034,-1.55037 -0.962982,-3.00679 -1.050997,-3.23648 -0.08802,-0.22968 -0.273859,-0.84044 -0.412984,-1.35723 -0.139126,-0.51679 -0.337761,-1.10278 -0.441409,-1.3022 -0.103651,-0.19941 -0.188455,-0.50607 -0.188455,-0.68145 0,-0.17538 -0.08481,-0.48203 -0.188455,-0.68145 -0.103649,-0.19942 -0.300732,-0.7854 -0.437961,-1.3022 -0.137229,-0.51679 -0.334312,-1.10278 -0.43796,-1.30219 -0.103651,-0.19942 -0.188455,-0.50607 -0.188455,-0.68145 0,-0.17539 -0.0848,-0.48204 -0.188455,-0.68146 -0.103649,-0.19941 -0.300732,-0.7854 -0.437961,-1.30219 -0.137229,-0.5168 -0.334311,-1.10279 -0.43796,-1.3022 -0.103651,-0.19942 -0.188455,-0.50607 -0.188455,-0.68145 0,-0.17538 -0.08425,-0.48204 -0.187234,-0.68145 -0.102976,-0.19942 -0.490337,-1.34918 -0.860801,-2.555032 -0.370462,-1.205849 -0.837757,-2.662265 -1.038432,-3.236479 -1.65406,-4.732943 -2.105812,-6.800811 -1.265722,-5.793753 0.215825,0.258721 0.459223,0.865863 0.540883,1.349204 0.08166,0.483341 0.221767,1.023359 0.311349,1.20004 0.08958,0.17668 0.374014,1.025954 0.632068,1.887276 0.258054,0.861321 0.53828,1.753963 0.622725,1.983648 0.08445,0.229686 0.268921,0.840441 0.409943,1.357234 0.141023,0.516792 0.345114,1.131565 0.453536,1.366162 0.108422,0.2346 0.223064,0.56346 0.254763,0.73082 0.0317,0.16735 0.160682,0.53918 0.286631,0.82629 0.229514,0.52319 0.534251,1.59216 0.565488,1.98365 0.0092,0.11484 0.07499,0.30277 0.146282,0.41761 0.131953,0.21256 0.755234,2.08711 1.631531,4.90692 0.267667,0.86132 0.809061,2.55264 1.203099,3.75849 0.394037,1.20585 1.090195,3.41396 1.547017,4.90692 0.456822,1.49296 1.099415,3.59233 1.427982,4.66528 0.92174,3.00994 3.96795,4.28549 3.96795,1.66152 0,-0.62237 0.29459,-0.78881 0.49086,-0.27733 0.54019,1.40769 -2.16649,2.93704 -3.417,1.93069 z m 6.93871,-1.31107 c -1.12757,-0.78978 -1.08929,-0.11881 -1.08929,-19.09299 0,-19.274305 -0.0551,-18.429306 1.24599,-19.102138 1.02495,-0.530022 1.83844,-0.365801 2.87791,0.580969 0.87717,0.79895 0.70687,36.327809 -0.17867,37.272669 -0.3556,0.37943 -0.78296,0.66132 -0.94968,0.62642 -0.48508,-0.10153 -0.38466,-0.45853 0.21192,-0.75346 0.72092,-0.3564 0.90166,-36.425011 0.18561,-37.039221 -0.42616,-0.36555 -1.99884,-0.277677 -2.3377,0.130617 -0.72146,0.869311 -0.25207,36.346524 0.48751,36.846284 0.70307,0.47508 0.82161,0.85673 0.26609,0.85673 -0.13994,0 -0.4638,-0.14665 -0.71969,-0.32588 z m -4.09422,-1.30775 c -0.24198,-0.39153 -2.84162,-8.47815 -2.84162,-8.83934 0,-0.19813 -0.094,-0.41832 -0.2088,-0.4893 -0.11485,-0.071 -0.20881,-0.35286 -0.20881,-0.62641 0,-0.27355 -0.094,-0.55544 -0.2088,-0.62642 -0.11485,-0.071 -0.20881,-0.33961 -0.20881,-0.59697 0,-0.25737 -0.0771,-0.5572 -0.1714,-0.6663 -0.0943,-0.1091 -0.669236,-1.74874 -1.277704,-3.64365 -0.608467,-1.8949 -1.189074,-3.60844 -1.290236,-3.80786 -0.101162,-0.19941 -0.183931,-0.54623 -0.183931,-0.77069 0,-0.22447 -0.09396,-0.4662 -0.208805,-0.53717 -0.114843,-0.071 -0.208805,-0.35287 -0.208805,-0.62642 0,-0.27355 -0.09396,-0.55544 -0.208805,-0.62641 -0.114843,-0.071 -0.208805,-0.35287 -0.208805,-0.62642 0,-0.27355 -0.09396,-0.555437 -0.208805,-0.626414 -0.114843,-0.07098 -0.208805,-0.312703 -0.208805,-0.537169 0,-0.224467 -0.08861,-0.57128 -0.196914,-0.770697 -0.108303,-0.199416 -0.376747,-0.926349 -0.596546,-1.615406 -2.370807,-7.432395 -3.777114,-9.379142 -5.053084,-6.994972 -0.284299,0.531219 -0.626415,0.538984 -0.626415,0.01422 0,-0.55871 1.185238,-1.35057 2.021503,-1.35057 0.723365,0 2.154599,1.124843 2.154599,1.693354 0,0.151294 0.08425,0.438239 0.187234,0.637656 0.102976,0.199417 0.490069,1.34918 0.860204,2.55503 0.370134,1.205849 0.747445,2.380378 0.838471,2.610064 0.259979,0.656012 4.259599,12.909684 5.009339,15.347174 0.37091,1.20585 0.79051,2.47434 0.93245,2.81887 0.14194,0.34453 0.75087,2.17679 1.35318,4.0717 0.60232,1.89491 1.19595,3.6586 1.31919,3.91932 0.23682,0.50098 -0.0812,1.14663 -0.35027,0.7112 z"
             id="path4934"
             sodipodi:nodetypes="cssssscssssssssssssssscscssscsssssssssssssscscsscsssssssssssssssssssssssssssssssssssssssssssssssssssssssscsssssscssssssssssscssssssssscssscsscssscsssscssssscsssscssscsscscssscssccssssssscssscssssssssscssscscscscssssssscsscssssssssscsscsssssscssccssssssscsssssssscssssssssssccsssssssssssssscssssssssssscsssssscsscsssssscssscssssssssscscsssscssssssssssscs" /><path
             style="fill:#000000;stroke-width:0.208805"
             d="m 107.46769,202.52449 c -0.72057,-0.72057 -0.8528,-4.34435 -0.85349,-23.39153 -4.2e-4,-13.06582 0.0144,-13.28551 0.95345,-14.03543 0.35966,-0.28724 0.35801,-0.26878 -0.0199,0.22267 -0.40453,0.52611 -0.40932,0.8039 -0.26286,15.24277 0.2302,22.69603 0.17181,21.99043 1.79986,21.75149 1.62262,-0.23815 1.51124,1.16655 1.49975,-18.91505 -0.009,-16.44402 0.0545,-18.70496 0.49617,-17.55399 0.17092,0.4454 0.16091,25.25907 -0.0127,31.39787 -0.13753,4.86389 -0.14192,4.8999 -0.65643,5.37673 -0.77205,0.71552 -2.17852,0.66988 -2.94393,-0.0955 z M 52.428813,142.33777 c -0.08564,-0.13857 5.774774,-0.20881 17.422905,-0.20881 11.5621,0 17.551955,0.0713 17.551955,0.20881 0,0.28849 -34.796563,0.28849 -34.97486,0 z M 110.99865,105.3435 c 0,-16.643949 -0.0296,-18.234486 -0.34557,-18.583654 -0.27646,-0.305483 -0.2865,-0.381851 -0.0502,-0.381851 0.82487,0 0.83246,0.172468 0.82756,18.804735 -0.003,9.86973 -0.007,18.03893 -0.009,18.15377 -0.003,0.11484 -0.0987,0.20881 -0.21352,0.20881 -0.13761,0 -0.20881,-6.20647 -0.20881,-18.20181 z m -3.84055,17.24511 c -0.16563,-0.43162 -0.16563,-34.404684 0,-34.836304 0.43317,-1.128843 0.49967,1.189117 0.49967,17.418154 0,16.22903 -0.0665,18.54699 -0.49967,17.41815 z"
             id="path4936" /><path
             style="fill:#000000;stroke-width:0.208805"
             d="m 107.88956,202.82003 c -1.08965,-0.62876 -1.0554,0.0138 -1.00887,-18.93004 0.0433,-17.64404 0.0433,-17.64404 0.0984,-3.24547 0.0351,9.17805 0.1303,14.47375 0.26247,14.60592 0.11837,0.11836 0.20736,1.51799 0.20736,3.26127 0,3.90666 0.84146,4.98391 2.68279,3.43453 0.7971,-0.67072 1.14063,-0.27783 0.40248,0.46031 -0.62394,0.62394 -1.92692,0.82766 -2.64468,0.41348 z m -0.643,-97.64957 c 0,-11.467271 0.0708,-17.53439 0.20241,-17.330829 0.12645,0.195682 0.20241,6.698779 0.20241,17.330829 0,10.63204 -0.076,17.13514 -0.20241,17.33082 -0.13156,0.20356 -0.20241,-5.86356 -0.20241,-17.33082 z"
             id="path4938" /></g></g></mask></defs><g
     inkscape:label="Layer 1"
     inkscape:groupmode="layer"
     id="layer1"
     transform="translate(-1.5235561,-1.8622535)"><path
       style="fill:#000000;fill-opacity:1;stroke:none;stroke-width:1;stroke-linecap:square;stroke-linejoin:bevel;stroke-miterlimit:15.7;paint-order:stroke fill markers"
       id="rect479"
       width="154.93716"
       height="35.501534"
       x="1.6457665"
       y="2.351095"
       ry="5.8777375"
       mask="url(#mask-powermask-path-effect4944)"
       inkscape:path-effect="#path-effect4944"
       d="M 7.523504,2.351095 H 150.70519 c 3.25627,0 5.87774,2.6214709 5.87774,5.8777375 V 31.974891 c 0,3.256267 -2.62147,5.877737 -5.87774,5.877737 H 7.523504 c -3.2562666,0 -5.8777375,-2.62147 -5.8777375,-5.877737 V 8.2288325 c 0,-3.2562666 2.6214709,-5.8777375 5.8777375,-5.8777375 z"
       sodipodi:type="rect"
       transform="translate(-0.12221039,-0.48884154)" /></g></svg>
